<?xml version="1.0" encoding="utf-8"?>
<!-- Generator: Adobe Illustrator 17.0.2, SVG Export Plug-In . SVG Version: 6.00 Build 0)  -->
<!DOCTYPE svg PUBLIC "-//W3C//DTD SVG 1.1//EN" "http://www.w3.org/Graphics/SVG/1.1/DTD/svg11.dtd">
<svg version="1.1" id="Layer_1" xmlns="http://www.w3.org/2000/svg" xmlns:xlink="http://www.w3.org/1999/xlink" x="0px" y="0px"
	 width="169.124px" height="48.542px" viewBox="14.292 73.854 169.124 48.542"
	 enable-background="new 14.292 73.854 169.124 48.542" xml:space="preserve">
<g>
	<path fill="#FFFFFF" d="M21.573,73.854l-4.466,11.165c-0.68,1.65-1.457,2.621-2.427,2.815h-0.194v0.776h4.563v-0.776h-0.194
		c-0.971,0-1.456-0.389-1.456-1.165l0.68-2.136l0.291-0.777h5.146l1.359,3.398c0,0.485-0.485,0.68-1.457,0.68h-0.194v0.776h6.116
		v-0.776h-0.097c-0.485,0-0.971-0.194-1.165-0.485l-0.971-1.942l-4.854-11.553H21.573L21.573,73.854z M23.417,82.98H18.66
		l2.33-5.534L23.417,82.98L23.417,82.98z"/>
	<path fill="#FFFFFF" d="M40.407,74.825c-0.874,0-1.457,0.194-1.65,0.389c-0.194,0.485-0.292,1.067-0.292,2.232v7.961
		c0,1.068,0.097,1.748,0.292,1.942c0.194,0.291,0.777,0.485,1.942,0.485h0.777c1.359,0,2.33-0.389,2.913-1.165
		c0.485-0.485,0.874-1.457,1.165-2.622h0.776l-0.097,4.563H33.611v-0.776h0.485c0.777,0,1.262-0.194,1.457-0.485
		c0.097-0.389,0.291-1.165,0.291-2.33v-7.573c0-1.165-0.194-1.941-0.291-2.232c-0.194-0.194-0.874-0.389-1.651-0.389h-0.291v-0.582
		h7.282v0.582H40.407L40.407,74.825z"/>
	<path fill="#FFFFFF" d="M60.116,78.611v4.854h-0.777v-0.194c0-0.776-0.194-1.262-0.388-1.65l-1.553-0.291h-1.457v3.592
		c0,1.262,0.097,2.039,0.292,2.427c0.194,0.291,0.776,0.485,1.747,0.485h0.874c1.456,0,2.427-0.389,3.01-1.165
		c0.485-0.777,0.971-1.65,1.165-2.622h0.776l-0.291,4.563h-12.33v-0.776h0.194c0.776,0,1.262-0.194,1.65-0.485
		c0.097-0.389,0.097-1.165,0.097-2.33v-7.573c0-1.165,0-1.747-0.097-2.136c-0.389-0.291-0.874-0.485-1.456-0.485h-0.194v-0.582
		h10.874l0.291,3.495h-0.679c-0.098-0.971-0.486-1.554-0.777-1.942c-0.486-0.583-1.457-0.971-2.913-0.971h-2.233v5.728h1.457
		c0.776,0,1.262-0.194,1.553-0.388c0.194-0.097,0.388-0.583,0.388-1.456v-0.098L60.116,78.611L60.116,78.611z"/>
	<path fill="#FFFFFF" d="M85.359,88.611h-7.767v-0.776h0.194c1.068,0,1.748-0.194,1.748-0.68l-0.971-1.748l-2.427-2.913
		l-2.233,2.524l-0.971,1.845c0,0.582,0.485,0.971,1.262,0.971h0.194v0.776h-5.825v-0.776h0.097c1.359-0.194,2.815-1.165,4.272-2.913
		l2.718-3.107l-3.689-4.369l-1.845-2.232c-0.291-0.194-0.776-0.389-1.456-0.389h-0.097v-0.582h6.893v0.582h-0.291
		c-0.777,0-1.165,0.194-1.165,0.68l0.874,1.262l2.427,3.107l2.427-2.913c0.486-0.68,0.777-1.165,0.777-1.262
		c0-0.485-0.485-0.874-1.456-0.874h-0.194v-0.582h5.534v0.582h-0.194c-0.777,0-1.457,0.194-1.942,0.68l-2.039,2.136l-2.331,2.719
		l3.592,4.563l2.136,2.427l1.748,0.485V88.611L85.359,88.611z"/>
	<path fill="#FFFFFF" d="M103.611,87.834c-0.486,0-0.971-0.194-1.068-0.485l-0.971-1.942l-4.854-11.553h-0.68l-4.563,11.165
		l-1.068,2.136c-0.388,0.291-0.874,0.485-1.359,0.68h-0.097v0.776h4.466v-0.776H93.32c-0.971,0-1.456-0.389-1.456-1.165l0.582-2.136
		l0.389-0.777h5.146l0.971,2.136l0.291,1.262c0,0.485-0.486,0.68-1.457,0.68H97.69v0.776h6.115v-0.776L103.611,87.834
		L103.611,87.834z M97.689,82.98h-4.564l2.233-5.534L97.689,82.98L97.689,82.98z"/>
	<path fill="#FFFFFF" d="M123.514,74.825c-0.777,0.194-1.455,0.485-1.748,0.971l-0.193,1.359v11.748h-0.582l-10.098-12.622v8.932
		c0,0.971,0,1.457,0.193,1.651c0.486,0.582,1.166,0.971,1.943,0.971h0.291v0.776h-5.438v-0.776h0.098
		c0.971,0,1.65-0.389,1.941-0.971l0.193-1.651V77.64c0-1.359-0.193-2.136-0.68-2.427l-1.262-0.389h-0.193v-0.582h4.369l8.445,10.291
		v-7.379c0-0.971-0.193-1.65-0.484-1.845l-1.65-0.485h-0.098v-0.582h5.146v0.582L123.514,74.825L123.514,74.825z"/>
	<path fill="#FFFFFF" d="M140.699,75.31c-1.652-0.776-3.885-1.262-6.99-1.262h-2.914l-2.039,0.194v0.582h0.293
		c0.775,0,1.262,0.194,1.65,0.485l0.096,2.33v7.379l-0.096,2.33c-0.389,0.291-0.875,0.485-1.457,0.485h-0.486v0.776h5.826
		l4.854-0.485c3.01-0.971,4.467-3.204,4.467-6.602C143.902,78.611,142.834,76.475,140.699,75.31L140.699,75.31z M138.271,75.504
		c1.748,0.971,2.621,3.106,2.621,6.116c0,2.33-0.486,4.078-1.65,5.243c-0.777,0.582-2.137,0.971-3.883,0.971
		c-0.777,0-1.264-0.194-1.457-0.485c-0.193-0.485-0.291-1.359-0.291-2.815v-9.709l1.262-0.097
		C136.33,74.728,137.494,75.019,138.271,75.504L138.271,75.504z"/>
	<path fill="#FFFFFF" d="M162.057,84.048l-0.193,4.563h-12.428v-0.776h0.291c0.875,0,1.359-0.194,1.457-0.485
		c0.193-0.389,0.389-1.165,0.389-2.33v-7.573c0-1.165-0.195-1.747-0.389-2.136c-0.098-0.291-0.582-0.485-1.262-0.485h-0.195v-0.582
		h11.068l0.098,3.495h-0.582c-0.195-0.777-0.486-1.457-0.875-1.942c-0.484-0.583-1.553-0.971-3.01-0.971h-2.135v5.728h1.455
		c0.777,0,1.264-0.194,1.457-0.388c0.291-0.097,0.486-0.583,0.486-1.456v-0.098h0.775v4.854h-0.775v-0.194
		c0-0.776-0.195-1.262-0.293-1.65l-1.65-0.291h-1.455v3.592c0,1.262,0.193,2.039,0.291,2.427c0.193,0.291,0.873,0.485,1.844,0.485
		h0.777c1.457,0,2.428-0.389,2.912-1.165c0.486-0.777,0.971-1.65,1.264-2.622L162.057,84.048L162.057,84.048z"/>
	<path fill="#FFFFFF" d="M182.736,88.611v-0.776c-1.068,0-2.426-0.971-3.883-2.913c-1.262-1.942-2.232-3.107-3.01-3.592
		c2.523-0.485,3.883-1.65,3.883-3.592c0-1.263-0.68-2.233-1.941-2.913c-0.971-0.582-2.621-0.971-4.854-0.971l-5.535,0.389v0.582
		h0.195c0.777,0,1.455,0.194,1.553,0.389l0.389,2.232v7.573l-0.389,2.33c-0.098,0.291-0.582,0.485-1.457,0.485h-0.484v0.776h7.281
		v-0.776h-0.582c-0.875,0-1.359-0.194-1.457-0.485c-0.193-0.389-0.389-1.165-0.389-2.33v-3.204h0.195
		c0.775,0,1.262,0.194,1.65,0.291l2.039,2.816c1.164,1.942,2.135,3.204,2.814,3.689L182.736,88.611L182.736,88.611z M176.621,77.738
		c0,1.941-0.68,2.912-2.137,3.106l-2.428,0.194v-6.214h0.971c1.359,0,2.332,0.194,2.816,0.68
		C176.33,75.99,176.621,76.669,176.621,77.738L176.621,77.738z"/>
	<path fill="#FFFFFF" d="M35.359,97.059l-7.961,17.572h-0.777l-8.252-17.572v11.65c0,1.746,0.194,2.912,0.68,3.494
		c0.291,0.971,1.068,1.457,2.427,1.457h0.098v0.971h-7.282v-0.971h0.194c1.165,0,1.942-0.486,2.428-1.457
		c0.291-0.582,0.485-1.941,0.485-3.689V99c0-1.846-0.194-2.816-0.485-3.302c-0.292-0.485-0.971-0.583-2.136-0.583h-0.485v-0.971
		h6.99l7.087,15.826l7.185-15.826h6.893v0.971h-0.583c-1.165,0-1.942,0.292-2.33,0.777c-0.292,0.485-0.485,1.457-0.485,3.107v10.775
		c0,1.652,0.194,2.816,0.679,3.301c0.194,0.486,0.777,0.584,1.942,0.584h0.777v0.971H32.252v-0.971h0.485
		c1.165,0,1.845-0.098,2.136-0.584c0.291-0.484,0.485-1.648,0.485-3.301L35.359,97.059L35.359,97.059z"/>
	<path fill="#FFFFFF" d="M50.408,104.34c0,4.174,1.65,7.281,5.048,9.223c1.748,1.068,3.689,1.553,5.922,1.553l1.165-0.096
		l-4.563,2.523c-1.068,0.486-1.553,0.971-1.553,1.457c0,0.484,0.291,0.68,0.777,0.68l1.262-0.68
		c0.874-0.777,1.845-1.264,2.816-1.264c1.456,0,3.204,0.682,5.146,2.137l2.136,1.457c1.457,0.775,2.718,1.066,4.175,1.066
		c3.592,0,5.534-1.746,6.02-5.145h-0.971c-0.485,1.457-1.65,2.137-3.398,2.137c-1.359,0-2.913-0.389-4.854-1.166
		c-2.913-1.164-5.339-1.65-7.281-1.65l-0.486,0.193l3.689-2.135c2.428-0.777,4.175-2.039,5.534-3.885
		c1.456-1.746,2.039-3.883,2.039-6.309c0-3.012-1.068-5.633-3.204-7.768c-2.136-1.942-4.66-2.914-8.059-2.914
		c-3.397,0-6.213,0.971-8.252,2.914C51.378,98.611,50.408,101.232,50.408,104.34L50.408,104.34z M61.572,94.921
		c1.651,0,3.107,0.486,4.369,1.457c1.748,1.456,2.621,4.077,2.621,8.06c0,2.621-0.485,4.756-1.359,6.309l-1.068,1.457
		c-1.165,1.166-2.621,1.846-4.369,1.846c-2.33,0-3.883-0.875-5.048-2.33c-1.262-1.943-1.942-4.467-1.942-7.574
		c0-2.621,0.486-4.66,1.457-6.311C57.398,95.893,59.145,94.921,61.572,94.921L61.572,94.921z"/>
	<path fill="#FFFFFF" d="M83.611,99c0-1.846-0.194-2.816-0.485-3.302c-0.388-0.485-1.165-0.583-2.33-0.583h-0.291v-0.971h9.903
		v0.971H90.02c-1.068,0-1.942,0.098-2.233,0.583C87.495,96.184,87.3,97.154,87.3,99v6.893c0,2.816,0.292,4.758,0.777,5.535
		c0.874,1.455,2.427,2.232,4.854,2.232c1.359,0,2.428-0.291,3.593-0.971c1.166-0.584,1.748-1.457,2.232-2.525
		c0.195-0.68,0.389-2.135,0.389-4.271v-7.088c0-1.262-0.193-2.232-0.68-2.719c-0.291-0.484-1.164-0.873-2.232-0.97h-0.194v-0.971
		h7.282v0.971h-0.291l-1.65,0.583c-0.777,0.485-1.166,1.36-1.166,2.622v8.932c0,2.719-0.777,4.66-2.232,5.922
		c-1.457,1.359-3.593,1.941-6.117,1.941c-3.107,0-5.534-0.971-6.99-2.912c-1.165-1.262-1.457-2.912-1.263-4.854L83.611,99L83.611,99
		z"/>
	<path fill="#FFFFFF" d="M122.059,100.455h0.971v6.895h-0.971v-0.098c0-1.166-0.098-1.941-0.584-2.33
		c-0.389-0.291-1.164-0.484-2.33-0.484h-2.039v4.854c0,1.941,0.098,3.107,0.486,3.592c0.291,0.486,1.068,0.777,2.523,0.777h1.166
		c1.941,0,3.398-0.584,4.174-1.748c0.875-0.971,1.359-2.232,1.846-3.689h0.971l-0.389,6.408h-17.572v-0.971h0.484
		c1.068,0,1.748-0.098,2.039-0.584c0.389-0.484,0.486-1.648,0.486-3.301V99c0-1.65-0.098-2.816-0.486-3.302
		c-0.291-0.485-0.971-0.583-2.039-0.583h-0.193v-0.971h15.729l0.291,5.146h-0.971c-0.291-1.166-0.777-2.137-1.262-2.913
		c-0.486-0.485-0.973-0.776-1.457-0.971l-2.621-0.194h-3.205v8.156h2.039c1.166,0,1.941-0.195,2.33-0.486
		c0.486-0.484,0.584-1.164,0.584-2.33L122.059,100.455L122.059,100.455z"/>
	<path fill="#FFFFFF" d="M149.727,96.378l-1.262-0.971l-2.719-0.194h-3.301v8.156h2.137c1.164,0,1.748-0.195,2.232-0.486
		c0.389-0.484,0.486-1.164,0.486-2.33v-0.098h1.164v6.895H147.3v-0.098c0-1.166-0.098-1.941-0.486-2.33
		c-0.291-0.291-1.068-0.484-2.232-0.484h-2.137v4.854c0,1.941,0.195,3.107,0.486,3.592c0.389,0.486,1.164,0.777,2.621,0.777h1.164
		c1.943,0,3.398-0.584,4.176-1.748c0.777-0.971,1.262-2.232,1.748-3.689h0.971l-0.291,6.408h-17.67v-0.971h0.484
		c1.166,0,1.846-0.098,2.137-0.584c0.291-0.484,0.484-1.648,0.484-3.301V99c0-1.65-0.193-2.816-0.484-3.302
		c-0.291-0.485-0.971-0.583-1.941-0.583h-0.291v-0.971h15.631l0.387,5.146h-0.971C150.697,98.125,150.213,97.154,149.727,96.378
		L149.727,96.378z"/>
	<path fill="#FFFFFF" d="M180.311,98.514v16.602h-1.068l-14.078-17.961v12.816c0,1.262,0.098,2.135,0.291,2.428
		c0.486,0.775,1.457,1.262,2.719,1.262h0.389v0.971h-7.67v-0.971c1.457-0.098,2.428-0.486,2.816-1.262
		c0.096-0.293,0.291-1.166,0.291-2.428V99.096c0-1.941-0.291-3.01-0.777-3.494l-2.137-0.486h-0.193v-0.971h6.504L179.242,109V98.32
		c0-1.262-0.389-2.137-0.875-2.622c-0.484-0.485-1.262-0.583-2.037-0.583h-0.389v-0.971h7.475v0.971h-0.291
		c-1.164,0.098-1.941,0.486-2.428,1.262C180.504,96.863,180.311,97.543,180.311,98.514L180.311,98.514z"/>
	<path fill="#FFFFFF" d="M62.058,100.455c-1.748,0-2.622,1.264-2.622,3.689c0,2.719,0.971,4.078,2.815,4.078
		c1.262,0,2.039-0.68,2.524-1.941l0.679,0.291c-0.485,1.65-1.748,2.428-3.689,2.428c-1.456,0-2.621-0.486-3.397-1.262
		c-0.874-0.875-1.359-1.943-1.359-3.301c0-1.457,0.485-2.525,1.456-3.398c0.971-0.971,2.136-1.457,3.593-1.457
		c0.776,0,1.65,0.193,2.232,0.68c0.486,0.291,0.874,0.777,0.874,1.262c0,0.486-0.388,0.875-0.874,0.875
		c-0.485,0-0.971-0.389-1.067-1.166C63.029,100.748,62.737,100.455,62.058,100.455L62.058,100.455z"/>
</g>
</svg>
