<?xml version="1.0" encoding="utf-8"?>
<!-- Generator: Adobe Illustrator 17.0.2, SVG Export Plug-In . SVG Version: 6.00 Build 0)  -->
<!DOCTYPE svg PUBLIC "-//W3C//DTD SVG 1.1//EN" "http://www.w3.org/Graphics/SVG/1.1/DTD/svg11.dtd">
<svg version="1.1" id="Capa_1" xmlns="http://www.w3.org/2000/svg" xmlns:xlink="http://www.w3.org/1999/xlink" x="0px" y="0px"
	 width="261px" height="70px" viewBox="0 0 261 70" enable-background="new 0 0 261 70" xml:space="preserve">
<g>
	<g>
		<g>
			<path fill="#FFFFFF" d="M5.553,42.16c0,13.728,10.966,21.139,21.271,21.139c9.28,0,15.009-5.941,16.34-7.48
				c0.197-0.217,0.415-0.503,0.415-0.503l-4.142-4.546c0,0-0.266,0.33-0.483,0.547c-1.203,1.253-5.789,5.514-12.514,5.514
				c-8.136,0-14.033-6.248-14.033-14.832c0-7.719,4.872-15.51,14.161-15.51c5.661,0,9.536,3.501,10.72,4.743
				c0.266,0.269,0.552,0.622,0.552,0.622l4.596-4.223c0,0-0.256-0.36-0.522-0.653c-1.44-1.664-6.657-6.866-15.384-6.866
				C16.361,20.11,5.553,27.832,5.553,42.16z"/>
		</g>
		<g>
			<path fill="#FFFFFF" d="M171.698,20.974h-2.317V62.13h6.844c0,0,0-26.702,0-27.772c0.75,0.779,27.148,27.984,27.148,27.984h2.199
				V21.064h-6.981c0,0,0,26.234,0,27.289c-0.75-0.773-26.804-27.38-26.804-27.38h-0.089V20.974z"/>
		</g>
		<g>
			<path fill="#FFFFFF" d="M250.037,21.116H229.26V62.18H252v-6.193c0,0-15.778,0-16.212,0c0-0.419,0-12.662,0-13.086
				c0.434,0,11.873,0,11.873,0v-6.245c0,0-11.439,0-11.873,0c0-0.427,0-8.893,0-9.316c0.434,0,14.486,0,14.486,0v-6.223h-0.237
				V21.116z"/>
		</g>
		<g>
			<path fill="#FFFFFF" d="M108.763,21.116h-6.282V62.18h20.64v-6.44c0,0-13.698,0-14.142,0c0-0.444,0-34.624,0-34.624
				S108.763,21.116,108.763,21.116z"/>
		</g>
		<g>
			<polygon fill="#FFFFFF" points="145.368,21.116 139.323,21.116 139.323,62.18 145.595,62.18 145.595,21.116 			"/>
		</g>
		<g>
			<g>
				<path fill="#FFFFFF" d="M81.062,21.116H60.293V62.18h22.711v-6.193c0,0-15.758,0-16.212,0c0-0.419,0-12.662,0-13.086
					c0.444,0,11.893,0,11.893,0v-6.242c0,0-11.449,0-11.893,0c0-0.427,0-8.896,0-9.319c0.444,0,14.487,0,14.487,0v-6.223h-0.217
					V21.116z"/>
			</g>
			<g>
				<polygon fill="#FFFFFF" points="74.228,6.179 64.722,13.212 67.295,16.528 77.561,10.469 74.415,6.048 				"/>
			</g>
		</g>
	</g>
</g>
</svg>
