<?xml version="1.0" encoding="utf-8"?>
<!-- Generator: Adobe Illustrator 17.0.2, SVG Export Plug-In . SVG Version: 6.00 Build 0)  -->
<!DOCTYPE svg PUBLIC "-//W3C//DTD SVG 1.1//EN" "http://www.w3.org/Graphics/SVG/1.1/DTD/svg11.dtd">
<svg version="1.1" id="Ebene_1" xmlns="http://www.w3.org/2000/svg" xmlns:xlink="http://www.w3.org/1999/xlink" x="0px" y="0px"
	 width="73.27px" height="47.665px" viewBox="77.365 28.168 73.27 47.665" enable-background="new 77.365 28.168 73.27 47.665"
	 xml:space="preserve">
<g id="Ebene_2" display="none">
	<g display="inline">
		<path fill="#1A171B" d="M219.807,78.486c-0.105,0-0.367-0.026-0.533-0.051c-0.354-0.049-0.426-0.322-0.459-0.685
			c-0.061-0.521-0.061-1.502-0.061-2.694v-1.99c0-1.938,0-2.287,0.023-2.684c0.021-0.438,0.119-0.646,0.438-0.71
			c0.141-0.022,0.213-0.036,0.295-0.036c0.049,0,0.098-0.121,0.098-0.171c0-0.075-0.063-0.1-0.191-0.1
			c-0.354,0-1.1,0.034-1.16,0.034c-0.059,0-0.803-0.034-1.193-0.034c-0.127,0-0.188,0.022-0.188,0.1c0,0.05,0.049,0.171,0.097,0.171
			c0.081,0,0.235,0.014,0.364,0.051c0.263,0.063,0.381,0.272,0.401,0.695c0.022,0.396,0.022,0.744,0.022,2.684v1.99
			c0,1.192,0,2.174-0.059,2.694c-0.048,0.36-0.104,0.636-0.343,0.685c-0.104,0.022-0.25,0.051-0.356,0.051
			c-0.067,0-0.097,0.133-0.097,0.17c0,0.076,0.063,0.101,0.188,0.101c0.357,0,1.104-0.036,1.16-0.036
			c0.063,0,0.808,0.036,1.457,0.036c0.133,0,0.188-0.036,0.188-0.101C219.9,78.619,219.879,78.486,219.807,78.486z"/>
		<path fill="#1A171B" d="M146.711,69.368c-0.355,0-0.91,0.036-0.994,0.036c-0.07,0-0.723-0.036-1.256-0.036
			c-0.131,0-0.189,0.024-0.189,0.1c0,0.05,0.049,0.173,0.098,0.173c0.105,0,0.307,0.01,0.402,0.037
			c0.391,0.086,0.482,0.282,0.506,0.704c0.023,0.397,0.023,0.747,0.023,2.685v1.455c0,1.279-0.141,2.336-0.686,3.043
			c-0.426,0.533-1.135,0.896-1.857,0.896c-0.676,0-1.209-0.112-1.787-0.685c-0.51-0.508-0.889-1.276-0.889-3.065v-1.644
			c0-1.938,0-2.285,0.023-2.685c0.021-0.433,0.117-0.657,0.438-0.704c0.143-0.027,0.213-0.037,0.297-0.037
			c0.047,0,0.096-0.123,0.096-0.173c0-0.073-0.059-0.1-0.188-0.1c-0.354,0-1.064,0.036-1.176,0.036
			c-0.106,0-0.828-0.036-1.359-0.036c-0.129,0-0.188,0.024-0.188,0.1c0,0.05,0.049,0.173,0.094,0.173
			c0.107,0,0.311,0.01,0.404,0.037c0.391,0.086,0.482,0.282,0.508,0.704c0.025,0.397,0.025,0.747,0.025,2.685v1.715
			c0,1.814,0.447,2.685,1.027,3.27c0.84,0.832,2.035,0.883,2.438,0.883c0.699,0,1.588-0.123,2.438-0.92
			c0.946-0.881,1.09-2.371,1.09-3.714V73.07c0-1.938,0-2.287,0.022-2.687c0.022-0.433,0.117-0.646,0.438-0.704
			c0.142-0.037,0.214-0.037,0.298-0.037c0.047,0,0.094-0.121,0.094-0.172C146.9,69.395,146.84,69.368,146.711,69.368z"/>
		<path fill="#1A171B" d="M112.188,22.746c-0.138,0-0.268,0.067-0.384,0.2c-0.026,0.029-0.03,0.073-0.013,0.108
			c0.02,0.034,0.061,0.049,0.099,0.048c0.066-0.011,0.256,0.003,0.413,0.011c0.094,0.005,0.178,0.01,0.224,0.01
			c0.003,0,0.024,0,0.024-0.001c0.037-0.002,0.07-0.025,0.084-0.061c0.013-0.034,0.005-0.073-0.021-0.1
			C112.561,22.908,112.4,22.746,112.188,22.746z"/>
		<path fill="#1A171B" d="M107.461,50.446c-0.146,0.607-0.316,1.095-0.34,1.158l-0.34,0.96l0.786-0.646
			c0.081-0.067,0.179-0.163,0.296-0.276c0.365-0.354,0.917-0.893,1.625-1.16c0.489-0.146,1.244-0.662,1.188-1.428
			c-0.006-0.07-0.004-0.168-0.002-0.28c0.009-0.559,0.023-1.494-0.623-1.946c-0.041-0.028-0.123-0.079-0.232-0.146
			c-0.301-0.185-1.112-0.684-1.482-1.066c0.689-0.38,2.391-1.374,3.098-2.233c1.071,2.812,1.528,5.159,1.951,7.351
			c0.121,0.627,0.241,1.241,0.371,1.853l0.047,0.223h10.852l0.045-0.223c0.131-0.609,0.252-1.226,0.371-1.853
			c0.424-2.191,0.881-4.539,1.953-7.351c0.707,0.859,2.406,1.854,3.098,2.233c-0.371,0.383-1.184,0.882-1.482,1.066
			c-0.107,0.067-0.189,0.118-0.232,0.146c-0.646,0.452-0.633,1.389-0.621,1.948c0.002,0.112,0.004,0.208-0.004,0.278
			c-0.059,0.766,0.695,1.282,1.17,1.421c0.729,0.274,1.277,0.813,1.646,1.169c0.114,0.113,0.213,0.207,0.293,0.274l0.782,0.646
			l-0.336-0.958c-0.024-0.063-0.194-0.553-0.34-1.16c0.233,0.024,0.549,0.055,0.896,0.046l0.541-0.011l-0.322-0.438
			c-0.364-0.501-1.405-1.098-2.379-1.581c1.935-0.883,2.021-1.666,1.994-2.898c-0.006-0.233-0.01-0.484,0.004-0.774
			c0-0.953-1.235-1.645-1.614-1.833c-1.035-0.517-1.662-1.391-2.022-2.08c0.918-1.942,2.137-4.099,3.817-6.557l0.062-0.088
			l-0.015-0.106c-0.388-3.014-0.646-5.779,0.09-9.108l0.041-0.19l-0.161-0.106c-1.216-0.797-3.744-2.454-6.058-6.997l-0.117-0.231
			l-0.354,0.144c-0.558,0.233-1.399,0.585-6.17,0.585s-5.612-0.352-6.17-0.585l-0.353-0.143l-0.117,0.23
			c-2.313,4.543-4.842,6.2-6.058,6.997l-0.163,0.106l0.043,0.19c0.737,3.334,0.49,5.986,0.091,9.108l-0.015,0.106l0.062,0.088
			c1.679,2.457,2.898,4.614,3.817,6.557c-0.363,0.689-0.988,1.563-2.025,2.08c-0.379,0.188-1.613,0.88-1.612,1.849
			c0.013,0.273,0.009,0.524,0.003,0.758c-0.027,1.232,0.059,2.017,1.993,2.899c-1.271,0.63-2.071,1.161-2.38,1.581l-0.322,0.438
			l0.543,0.011C106.91,50.503,107.226,50.473,107.461,50.446z M118.682,36.234v-1.447h1.094v1.447h1.437v-1.447h0.587v2.346h-5.141
			v-2.346h0.82v1.447H118.682z M119.322,42.438v-0.729h1.557v0.729H119.322z M120.879,42.673v0.659h-0.406v-0.659H120.879z
			 M117.578,42.438v-0.729h1.555v0.729H117.578z M117.984,42.673v0.659h-0.406v-0.659H117.984z M118.174,42.673h2.109v0.659h-2.109
			V42.673z M117.578,41.474v-0.73h3.301v0.73H117.578z M119.133,39.537v0.972h-1.555v-0.972H119.133z M118.174,39.303v-0.729h2.109
			v0.729H118.174z M119.322,40.509v-0.972h1.557v0.972H119.322z M120.473,39.303v-0.729h1.141l-0.691,0.729H120.473z
			 M119.322,38.339v-0.971h2.475v0.971H119.322z M119.133,37.368v0.971h-2.477v-0.971H119.133z M117.984,38.574v0.729h-0.447
			l-0.696-0.729H117.984z M122.254,43.708v0.588h-6.057v-0.588H122.254z M120.973,46.049v0.97h-3.49v-0.97H120.973z M118.174,45.813
			v-1.141h2.109v1.141H118.174z M120.473,45.813v-1.141h1.369l0.322,1.141H120.473z M118.174,47.253h2.109v0.972h-2.109V47.253z
			 M120.973,48.459v1.213h-0.505c-0.208-0.669-0.728-1.02-1.245-1.02c-0.514,0-1.021,0.354-1.229,1.02h-0.512v-1.213H120.973z
			 M120.527,49.906h1.596v0.972h-1.559V50.32C120.564,50.172,120.551,50.035,120.527,49.906z M117.955,49.906
			c-0.023,0.133-0.064,0.251-0.064,0.403v0.568h-1.556v-0.972L117.955,49.906L117.955,49.906z M118.268,50.31
			c0-0.88,0.496-1.28,0.955-1.28c0.467,0,0.967,0.402,0.967,1.291v1.922h-1.922C118.268,52.243,118.268,50.31,118.268,50.31z
			 M120.564,51.112h3.094l0.316,1.13h-3.41V51.112z M122.311,50.878v-0.972h1.008l0.271,0.972H122.311z M121.16,49.672v-1.213h1.748
			l0.342,1.213H121.16z M120.473,48.225v-0.972h2.096l0.275,0.972H120.473z M121.16,47.019v-0.97h1.068l0.273,0.97H121.16z
			 M116.609,44.673h1.375v1.141h-1.707L116.609,44.673z M117.296,46.049v0.97h-1.367l0.282-0.97H117.296z M117.984,47.253v0.972
			h-2.404l0.281-0.972H117.984z M117.296,48.459v1.213h-2.136l0.351-1.213H117.296z M116.146,49.906v0.972h-1.336l0.282-0.972
			H116.146z M117.891,51.112v1.13h-3.476l0.327-1.13H117.891z M131.1,49.89c-0.025-0.003-0.055-0.005-0.082-0.007
			c-0.154-0.018-0.285-0.028-0.381-0.028h-0.346l0.068,0.337c0.041,0.205,0.09,0.405,0.137,0.59
			c-0.355-0.309-0.807-0.631-1.369-0.842c-0.258-0.076-0.818-0.396-0.783-0.843c0.006-0.083,0.004-0.198,0.002-0.33
			c0-0.101-0.002-0.216,0-0.337l0.582,0.272c0.068,0.032,0.131,0.063,0.197,0.096c0.021,0.011,0.039,0.019,0.064,0.03l0,0
			C130,49.219,130.66,49.582,131.1,49.89z M129.057,48.135c-0.225-0.108-0.432-0.204-0.57-0.268l-0.07-0.032
			c0.057-0.226,0.146-0.427,0.313-0.545c0.035-0.024,0.109-0.069,0.205-0.128c0.689-0.425,1.338-0.864,1.674-1.27
			c0.229,0.132,0.418,0.237,0.545,0.306C131.096,46.938,130.75,47.448,129.057,48.135z M129.863,43.462
			c0.648,0.323,1.303,0.859,1.303,1.313c-0.014,0.282-0.01,0.542-0.006,0.783c-0.074-0.042-0.164-0.095-0.256-0.148l0.01-0.021
			l-0.25-0.123c-0.924-0.461-3.232-1.902-3.395-2.527c0.162-0.4,0.342-0.813,0.527-1.234
			C128.225,42.196,128.873,42.97,129.863,43.462z M111.935,19.991c0.278,0.324,0.462,0.758,0.452,1.233h2.139
			c-0.013-0.593,0.268-1.134,0.67-1.461l-0.793,0.217c0,0-0.322-0.26-0.506-0.489l0.063,0.316c0.092,0.435-0.16,0.614-0.201,0.285
			c-0.043-0.362-0.059-0.529-0.302-0.813c-0.244,0.283-0.259,0.45-0.304,0.813c-0.041,0.329-0.293,0.149-0.2-0.285l0.063-0.316
			c-0.185,0.229-0.504,0.489-0.504,0.489l-0.482-0.132c0.314-0.502,0.63-1.039,0.941-1.637c0.638,0.257,1.699,0.572,6.257,0.572
			s5.619-0.315,6.258-0.572c2.248,4.313,4.683,6.026,5.97,6.875c-0.586,2.766-0.504,5.145-0.237,7.595h-1.187
			c0.014-0.058,0.01-0.12-0.011-0.185c-0.06-0.183-0.222-0.615-0.487-0.681c-1.453-0.343-1.82-1.125-2.043-1.597
			c-0.093-0.19-0.181-0.386-0.271-0.58c-0.447-0.967-0.906-1.965-1.365-2.468c-0.191-0.21-0.35-0.376-0.475-0.51
			c-0.25-0.263-0.385-0.409-0.438-0.518c-0.416-0.835-1.793-1.137-4.105-0.903l-0.111,0.011c-0.109,0.01-0.25,0.001-0.285-0.121
			c-0.031-0.109,0.029-0.255,0.119-0.299c2.107-0.871,2.52-1.334,2.637-1.639c0.074-0.189,0.031-0.344-0.016-0.451
			c0.646-0.223,0.666-0.522,0.609-0.913c0.285-0.077,0.467-0.188,0.563-0.341c0.131-0.208,0.076-0.437,0.021-0.658
			c0.398-0.16,0.402-0.512,0.377-0.76c0.273-0.197,0.539-0.441,0.43-0.677c-0.086-0.184-0.354-0.203-0.506-0.157
			c-0.014,0.004-0.027,0.011-0.037,0.019c-0.449,0.281-1.268,0.483-2.297,0.737c-1.344,0.332-3.014,0.746-4.689,1.542
			c-0.07,0.03-0.146,0.055-0.229,0.081c-0.168,0.056-0.361,0.119-0.55,0.242c-1.502-0.033-2.343-0.178-2.959-0.283
			c-0.688-0.118-1.103-0.187-1.813-0.01c-0.866,0.219-1.453,0.588-1.744,1.098c-0.356,0.628-0.165,1.272-0.084,1.548
			c0.01,0.034,0.02,0.062,0.022,0.08c0.068,0.316,0.231,0.561,0.486,0.724c0.333,0.214,0.742,0.229,0.937,0.186
			c0.244-0.055,0.441-0.021,0.592,0.056c-0.094,0.054-0.24,0.157-0.303,0.181c-0.076,0.028,0.037,0.127,0.477,0.125
			c0.057,0,0.093-0.006,0.131-0.012c0.416,0.77,0.326,1.142,0.22,1.57c-0.098,0.396-0.209,0.845,0.04,1.605
			c0.211,0.765,0.121,2.287,0.066,2.726c-0.047,0.384-0.273,0.523-0.563,0.701c-0.074,0.046-0.148,0.093-0.225,0.145
			c-0.213,0.15-0.345,0.266-0.377,0.386h-4.533c0.264-2.45,0.348-4.829-0.238-7.595C108.092,24.368,110.006,23.009,111.935,19.991z
			 M112.512,20.736c0.013,0.058,0.025,0.114,0.033,0.173c-0.037-0.296-0.127-0.589-0.299-0.825c0.133,0.051,0.273,0.106,0.273,0.106
			c0.088-0.037,0.143-0.082,0.221-0.152c0.01,0.641,0.595,0.486,0.595,0.044c0-0.182,0.028-0.339,0.121-0.489
			c0.091,0.15,0.12,0.308,0.12,0.489c0,0.442,0.585,0.597,0.596-0.044c0.078,0.07,0.132,0.115,0.221,0.152
			c0,0,0.141-0.056,0.273-0.106c-0.197,0.27-0.303,0.611-0.324,0.949h-1.773c-0.002-0.036-0.016-0.072-0.02-0.107h1.813
			c0.009-0.064,0.023-0.127,0.037-0.189L112.512,20.736L112.512,20.736z M125.963,30.52c-0.053-0.089-0.123-0.12-0.17-0.13
			c-0.52-0.109-0.639-0.614-0.682-0.984l-0.006-0.046c-0.025-0.169-0.057-1.066-0.049-1.215c0.01-0.215-0.012-0.409-0.055-0.591
			c0.949,1.247,1.771,2.931,1.889,3.236c0.307,0.822,0.98,1.421,2.025,1.783c0.092,0.032,0.127,0.066,0.158,0.108h-3.281
			C125.883,32.343,126.174,30.894,125.963,30.52z M129.008,32.256c-0.93-0.322-1.537-0.854-1.809-1.581
			c-0.174-0.464-1.51-3.161-2.816-4.297c-0.066-0.056-0.16-0.054-0.221,0.004c-0.061,0.057-0.072,0.15-0.021,0.218
			c0.416,0.566,0.609,0.941,0.586,1.533c-0.004,0.169,0.025,1.084,0.059,1.312c0.084,0.71,0.387,1.133,0.9,1.259
			c0.1,0.252-0.102,1.534-0.209,1.9c-0.072,0.028-0.238,0.054-0.422,0.078h-0.924c-0.006-0.015-0.012-0.029-0.014-0.035
			c-0.006-0.037,0.012-0.064,0.051-0.08c0.197-0.083,0.172-0.279,0.162-0.362c0-0.007,0-0.015-0.002-0.022
			c0.047-0.006,0.104,0.008,0.162,0.02c0.074,0.018,0.15,0.036,0.229,0.017c0.168-0.035,0.268-0.309,0.314-0.469
			c0.053-0.188,0.113-0.529-0.08-0.71c-0.045-0.041-0.127-0.106-0.236-0.19c-0.385-0.297-1.186-0.917-1.371-1.481
			c-0.01-0.036-0.035-0.066-0.064-0.086c-0.018-0.012-0.039-0.025-0.068-0.041c-0.205-0.113-0.688-0.38-0.855-1.511
			c-0.006-0.052-0.039-0.096-0.082-0.121c-0.047-0.025-0.104-0.027-0.148-0.006c-0.699,0.313-1.242,0.605-1.721,0.863
			c-1.493,0.808-2.244,1.215-4.949,0.552c-0.072-0.018-0.146,0.015-0.182,0.079c-0.252,0.44-0.48,0.718-0.898,1.175
			c-0.246,0.271-0.287,1.286-0.273,1.84c-0.007,0.029-0.093,0.096-0.139,0.132c-0.061,0.048-0.124,0.097-0.168,0.143
			c-0.063-0.01-0.17-0.026-0.32,0.027c-0.162,0.056-0.258,0.156-0.328,0.23c-0.014,0.014-0.025,0.023-0.043,0.038h-0.902
			c-0.004,0-0.01-0.001-0.012-0.001c0.036-0.029,0.086-0.067,0.152-0.114c0.068-0.048,0.139-0.092,0.209-0.134
			c0.305-0.188,0.648-0.402,0.715-0.94c0.037-0.293,0.17-1.965-0.078-2.862c-0.222-0.679-0.126-1.062-0.034-1.431
			c0.106-0.437,0.204-0.898-0.21-1.715c0.469-0.096,0.811-0.301,0.989-0.64c0.292-0.553,0.062-1.221-0.05-1.389
			c-0.053-0.076-0.152-0.096-0.229-0.046c-0.077,0.05-0.096,0.152-0.047,0.229c0.068,0.101,0.252,0.638,0.033,1.053
			c-0.133,0.254-0.395,0.418-0.777,0.492c0.096-0.146,0.154-0.314,0.143-0.481c-0.012-0.173-0.113-0.482-0.689-0.614
			c-0.176-0.006-0.331-0.053-0.496-0.083c0.162-0.046,0.3-0.11,0.322-0.207c0.01-0.049,0.002-0.122-0.102-0.189l-0.002,0.004
			c-0.005-0.003-0.012-0.006-0.017-0.01l0.001-0.003l-0.002,0.003c-0.164-0.083-0.508-0.117-0.512-0.117
			c-0.045,0-0.083,0.004-0.115,0.014c-0.098,0.028-0.221-0.013-0.31-0.046c-0.052-0.021-0.093-0.036-0.134-0.036l-0.027,0.002
			c-0.084,0.015-0.115,0.028-0.184,0.111c-0.038-0.052-0.073-0.109-0.07-0.174c0.004-0.074,0.052-0.153,0.146-0.233
			c0.119-0.103,0.639-0.34,0.768-0.299c0.052,0.014,0.106-0.001,0.147-0.035c0.026-0.024,0.055-0.049,0.081-0.075
			c0.166-0.158,0.189-0.151,0.248-0.109c0.051,0.038,0.119,0.045,0.176,0.015l0.092-0.052c0.205-0.119,0.32-0.174,0.52-0.016
			c0.064,0.05,0.154,0.044,0.213-0.007c0.061-0.055,0.073-0.143,0.029-0.211c-0.05-0.081-0.084-0.158-0.105-0.219
			c0.075,0.044,0.195,0.132,0.38,0.302c0.138,0.126,0.329,0.188,0.53,0.253c0.296,0.097,0.602,0.197,0.733,0.506
			c0.134,0.313,0.371,1.206,0.495,2.09l0.263-0.462c-0.138-0.768-0.332-1.47-0.454-1.756c-0.191-0.448-0.604-0.582-0.936-0.691
			c-0.166-0.055-0.324-0.105-0.41-0.184c-0.209-0.191-0.372-0.313-0.507-0.378c0.233,0.015,0.475,0.053,0.778,0.104
			c0.579,0.1,1.351,0.23,2.668,0.277c-0.164,0.208-0.307,0.499-0.407,0.916c-0.011,0.041-0.02,0.116-0.03,0.218
			c-0.051,0.464-0.17,1.551-0.896,2.033c-0.049,0.031-0.141,0.06-0.246,0.093c-0.575,0.183-1.645,0.521-1.744,2.931l0.328,0.013
			c0.091-2.179,0.982-2.46,1.515-2.629c0.13-0.041,0.243-0.076,0.329-0.134c0.022-0.015,0.039-0.035,0.063-0.052
			c0.005-0.006,0.011-0.008,0.016-0.013c0.779-0.588,0.909-1.714,0.962-2.207c0.01-0.081,0.016-0.144,0.023-0.176
			c0.233-0.96,0.686-1.109,1.086-1.241c0.094-0.03,0.181-0.06,0.262-0.096c1.652-0.782,3.305-1.191,4.633-1.521
			c1.043-0.258,1.871-0.463,2.367-0.764c0.02-0.004,0.043-0.004,0.063-0.003c-0.039,0.054-0.137,0.152-0.367,0.31
			c-0.051,0.035-0.078,0.097-0.068,0.159c0.049,0.341,0.036,0.476-0.271,0.542c-0.041,0.01-0.078,0.036-0.104,0.072
			c-0.023,0.037-0.031,0.082-0.021,0.124l0.035,0.142c0.051,0.202,0.078,0.33,0.023,0.418c-0.061,0.096-0.229,0.172-0.5,0.23
			c-0.082,0.017-0.139,0.096-0.131,0.181l0.02,0.134c0.049,0.318,0.068,0.451-0.541,0.621c-0.084,0.022-0.133,0.104-0.121,0.188
			c0.012,0.057,0.035,0.107,0.057,0.155c0.047,0.1,0.07,0.159,0.033,0.252c-0.094,0.239-0.596,0.687-2.466,1.458
			c-0.036,0.019-0.065,0.048-0.097,0.074c-0.01-0.113-0.074-0.249-0.223-0.368c0.313-0.012,0.438-0.06,0.479-0.194
			c0.018-0.05,0.021-0.129-0.049-0.228c-0.039-0.057-0.104-0.114-0.182-0.166c0.104-0.029,0.176-0.073,0.222-0.134
			c0.045-0.062,0.056-0.138,0.028-0.209c-0.066-0.191-0.362-0.271-0.795-0.212l0.002,0.003c-0.021-0.014-0.041-0.028-0.063-0.042
			c0.188-0.045,0.313-0.122,0.365-0.228c0.046-0.087,0.033-0.186-0.028-0.269c-0.093-0.127-0.317-0.235-0.619-0.218
			c0.005-0.057-0.016-0.116-0.055-0.168c-0.108-0.148-0.412-0.277-0.815-0.203l0.031,0.185c0.346-0.06,0.57,0.049,0.635,0.131
			c0.022,0.033,0.016,0.051,0.012,0.058c-0.027,0.057-0.189,0.15-0.621,0.15v0.189c0.297,0,0.595,0.188,0.597,0.253
			c-0.004,0.016-0.062,0.087-0.744,0.102l-0.022,0.185c0.36,0.106,0.496,0.244,0.504,0.33c0.002,0.028-0.006,0.053-0.028,0.071
			c-0.03,0.022-0.155,0.091-0.517-0.009c-0.031-0.01-0.063-0.02-0.099-0.029l-0.055,0.179c0.03,0.012,0.063,0.021,0.096,0.03
			c0.206,0.063,0.396,0.135,0.441,0.222c0.009,0.02,0.021,0.052,0,0.115c-0.031,0.096-0.146,0.121-0.675-0.012l-0.051,0.182
			c0.313,0.095,0.479,0.242,0.5,0.341c0.008,0.028-0.004,0.041-0.017,0.051c-0.054,0.047-0.25,0.082-0.647-0.062
			c-0.006-0.003-0.012-0.005-0.017-0.006l-0.063,0.177c0.004,0.002,0.01,0.003,0.015,0.005c0.25,0.094,0.424,0.223,0.465,0.345
			c0.015,0.042,0.013,0.077-0.011,0.109c-0.047,0.075-0.258,0.079-0.692-0.15l-0.092,0.166c0.235,0.137,0.34,0.304,0.356,0.403
			c0.008,0.034,0.002,0.061-0.01,0.076c-0.004,0.003-0.107,0.111-0.644-0.266V25.49l-0.109,0.154h0.001
			c0.28,0.199,0.393,0.412,0.401,0.532c0.005,0.042-0.005,0.063-0.009,0.066c-0.01,0.01-0.021,0.021-0.052,0.014
			c-0.045-0.003-0.213-0.034-0.485-0.356l-0.144,0.122c0.199,0.236,0.361,0.345,0.482,0.392l-0.008,0.008
			c0.168,0.2,0.348,0.346,0.514,0.419l-0.016,0.01c0.291,0.392,0.553,0.608,0.752,0.625c0.01,0.001,0.018,0.001,0.023,0.001
			c0.064,0,0.121-0.021,0.161-0.06c0.03-0.028,0.067-0.082,0.063-0.175c-0.006-0.082-0.039-0.178-0.102-0.278
			c0.217,0.071,0.358,0.037,0.43-0.04c0.03-0.035,0.063-0.097,0.049-0.198c-0.01-0.075-0.045-0.156-0.098-0.238
			c0.254,0.075,0.437,0.052,0.521-0.071c0.054-0.079,0.067-0.177,0.039-0.273c-0.019-0.062-0.052-0.12-0.099-0.177
			c0.133,0,0.23-0.021,0.305-0.077c0.068-0.057,0.102-0.142,0.086-0.233c-0.012-0.07-0.051-0.141-0.112-0.209
			c0.151,0,0.241-0.049,0.294-0.194c0-0.002-0.002-0.003,0-0.005c0.066,0.192,0.26,0.374,0.621,0.332l0.114-0.011
			c2.827-0.29,3.579,0.329,3.776,0.722c0.075,0.153,0.215,0.302,0.494,0.599c0.125,0.133,0.277,0.296,0.469,0.505
			c0.426,0.465,0.875,1.44,1.311,2.384c0.092,0.196,0.182,0.392,0.275,0.588c0.229,0.486,0.654,1.393,2.26,1.771
			c0.049,0.019,0.168,0.194,0.26,0.459c-0.025,0.027-0.16,0.048-0.26,0.007c-0.043-0.016-0.053-0.031-0.084-0.078
			C129.316,32.445,129.242,32.338,129.008,32.256z M124.004,32.243c0.002,0.011,0.002,0.022,0.004,0.034
			c-0.152,0.079-0.232,0.235-0.213,0.404h-2.029c0.229-0.098,0.396-0.387,0.582-0.719l0.025-0.047
			c0.242-0.424,0.176-0.582-0.006-0.93l-0.064-0.117c-0.143-0.261-0.494-0.931,0.24-1.761c0.197,0.246,0.398,0.359,0.51,0.42
			c0,0.001,0.002,0.001,0.002,0.002c0.246,0.641,1.031,1.247,1.463,1.579c0.096,0.075,0.172,0.133,0.211,0.169
			c0.008,0.01,0.025,0.045,0.027,0.118c0.002,0.182-0.08,0.41-0.135,0.496c-0.018-0.004-0.041-0.009-0.059-0.012
			c-0.1-0.022-0.232-0.051-0.377-0.004C123.969,31.949,123.994,32.162,124.004,32.243z M120.889,32.567
			c-0.031,0.043-0.076,0.079-0.119,0.114h-1.055c0-0.02-0.002-0.028,0.004-0.057c0.035-0.194,0.318-0.215,0.629-0.22
			c0.416-0.007,0.697-0.104,0.859-0.298c0.193-0.232,0.145-0.52,0.115-0.69l-0.008-0.062c-0.026-0.188-0.152-0.475-0.285-0.776
			c-0.055-0.123-0.109-0.247-0.158-0.366c-0.35-0.854-0.318-1.111-0.288-1.384c0.002-0.028,0.002-0.06,0.005-0.088
			c0.422-0.228,0.893-0.479,1.479-0.75c0.072,0.358,0.18,0.625,0.293,0.837c-0.643,0.685-0.771,1.423-0.346,2.2l0.063,0.113
			c0.154,0.297,0.174,0.327,0.012,0.612l-0.025,0.048c-0.221,0.391-0.355,0.623-0.488,0.585
			C121.26,32.29,121.043,32.35,120.889,32.567z M114.488,32.362c0.263-0.06,0.548-0.217,0.413-0.909
			c-0.039-0.204-0.167-0.494-0.315-0.83l-0.012-0.028c0.014-0.037,0.027-0.086,0.042-0.101c0.278-0.305,0.47-0.544,0.647-0.793
			c0.141,0.588,0.352,1.462,0.408,1.67c0.07,0.247,0.023,0.354-0.069,0.57c-0.057,0.134-0.128,0.301-0.188,0.54
			c-0.007,0.032-0.11,0.047-0.177,0.057c-0.064,0.009-0.126,0.018-0.18,0.042c-0.051,0.024-0.081,0.064-0.115,0.102h-0.891
			C114.225,32.506,114.363,32.396,114.488,32.362z M114.43,32.036c-0.005-0.333,0.01-0.618,0.036-0.858
			c0.055,0.135,0.097,0.251,0.113,0.338C114.665,31.963,114.55,32.009,114.43,32.036z M115.735,32.56
			c0.052-0.213,0.115-0.359,0.171-0.487c0.104-0.242,0.184-0.432,0.084-0.789c-0.061-0.221-0.33-1.337-0.467-1.91
			c2.508,0.59,3.417,0.244,4.721-0.449c-0.021,0.272-0.006,0.611,0.322,1.413c0.049,0.121,0.104,0.249,0.16,0.374
			c0.119,0.27,0.24,0.548,0.262,0.689l0.01,0.069c0.021,0.132,0.053,0.311-0.045,0.427c-0.094,0.112-0.305,0.175-0.637,0.18
			c-0.271,0.005-0.836,0.014-0.922,0.49c-0.011,0.043-0.002,0.076-0.004,0.115h-3.72C115.698,32.646,115.723,32.61,115.735,32.56z
			 M112.645,22.125c-0.187,0-0.359,0.087-0.484,0.157l0,0c-0.256-0.112-0.459,0.082-0.576,0.192
			c-0.007,0.006-0.014,0.014-0.021,0.021c-0.299,0.002-0.779,0.242-0.932,0.357c0.004-0.008,0.004-0.018,0.01-0.026
			c0.244-0.43,0.762-0.746,1.537-0.941c0.203-0.051,0.375-0.073,0.54-0.085C112.627,21.879,112.617,22.002,112.645,22.125z
			 M111.318,24.251c0.299,0.096,0.639,0.153,0.951,0.162c0.179,0.042,0.393,0.13,0.404,0.312c0.008,0.101-0.049,0.208-0.123,0.307
			c-0.23-0.15-0.533-0.235-0.906-0.153c-0.108,0.023-0.434,0.023-0.688-0.141c-0.178-0.114-0.293-0.289-0.342-0.518
			c-0.006-0.023-0.016-0.059-0.028-0.104c-0.025-0.083-0.057-0.215-0.082-0.362c0.021,0.024,0.031,0.052,0.055,0.075
			C110.73,24,110.992,24.145,111.318,24.251z M110.882,23.662c0.001-0.003,0.001-0.01,0.001-0.012
			c0.025-0.03,0.033-0.036,0.036-0.039c0.005-0.001,0.021-0.004,0.026-0.006c0.012,0.001,0.047,0.014,0.07,0.023
			c0.105,0.04,0.281,0.094,0.428,0.052c0.011-0.003,0.031-0.007,0.064-0.007c0.135,0,0.336,0.062,0.424,0.093
			c-0.076,0.04-0.258,0.089-0.445,0.115l-0.439-0.104C110.98,23.742,110.934,23.701,110.882,23.662z M120.119,24.689
			c-0.025,0.018-0.127,0.062-0.473-0.051c-0.024-0.008-0.051-0.019-0.076-0.026c0.01-0.064,0-0.13-0.03-0.193
			c-0.019-0.038-0.044-0.075-0.073-0.109c0.094-0.007,0.172-0.032,0.231-0.074c0.315,0.106,0.435,0.276,0.442,0.389
			C120.143,24.672,120.126,24.685,120.119,24.689z M120.139,24.878c-0.006,0.021-0.011,0.043-0.016,0.065
			c-0.01-0.016-0.02-0.032-0.031-0.048C120.111,24.893,120.123,24.882,120.139,24.878z M117.652,25.931
			c0.174,0.06,0.301,0.041,0.379-0.053c0.025-0.03,0.043-0.067,0.051-0.109c0.234,0.148,0.361,0.317,0.379,0.416
			c0.002,0.01,0.004,0.034-0.005,0.045c-0.083,0.104-0.376-0.066-0.604-0.231l0,0c0,0,0,0,0-0.001l-0.109,0.154
			c0.326,0.234,0.363,0.416,0.367,0.467c0.004,0.034-0.004,0.062-0.02,0.078c-0.004,0.002-0.018,0.008-0.049,0.008
			c-0.096-0.006-0.266-0.083-0.457-0.276c0.029-0.013,0.057-0.029,0.078-0.052c0.033-0.036,0.074-0.101,0.064-0.215
			C117.721,26.096,117.695,26.017,117.652,25.931z M119.801,23.352c0.027,0.037,0.027,0.058,0.025,0.061
			c-0.041,0.099-0.042,0.099-0.246,0.08c-0.096-0.009-0.225-0.02-0.398-0.02h-0.021c-0.031-0.099-0.111-0.188-0.236-0.266
			c0.209-0.019,0.341-0.051,0.418-0.103C119.529,23.125,119.725,23.241,119.801,23.352z M119.159,22.624
			c0.071-0.021,0.13-0.048,0.177-0.079c0.33-0.057,0.537,0.045,0.598,0.126c0.03,0.039,0.02,0.063,0.014,0.072
			c-0.033,0.069-0.188,0.147-0.514,0.166c-0.006-0.033-0.02-0.071-0.051-0.113C119.334,22.733,119.255,22.674,119.159,22.624z
			 M120.381,23.924c0.023,0.034,0.025,0.055,0.023,0.063c-0.021,0.059-0.313,0.077-0.59,0.063c0.004-0.021,0.004-0.044,0.002-0.067
			c-0.012-0.12-0.104-0.22-0.224-0.3c0.123,0.013,0.218,0.014,0.29-0.037v0.045C120.098,23.697,120.305,23.815,120.381,23.924z
			 M119.971,23.268c0.301-0.017,0.438,0.048,0.457,0.103c0.006,0.013,0.004,0.022-0.004,0.033c-0.013,0.018-0.092,0.099-0.431,0.1
			c0.002-0.006,0.005-0.012,0.007-0.019C120.02,23.438,120.029,23.364,119.971,23.268z M119.146,23.682
			c0.32,0.106,0.475,0.234,0.48,0.318c0.003,0.03-0.008,0.057-0.031,0.076c-0.033,0.027-0.168,0.1-0.564-0.021
			c-0.002-0.001-0.006-0.001-0.008-0.002c-0.002-0.045-0.012-0.086-0.033-0.124c-0.016-0.033-0.04-0.063-0.068-0.09
			c0.068-0.016,0.117-0.042,0.15-0.069C119.105,23.745,119.129,23.715,119.146,23.682z M118.982,24.238
			c0.201,0.068,0.34,0.162,0.386,0.262c0.021,0.042,0.022,0.082,0.005,0.123c-0.036,0.09-0.076,0.096-0.566-0.028l-0.023-0.007
			c-0.02-0.064-0.059-0.128-0.116-0.188c0,0,0,0,0.001,0C118.816,24.4,118.926,24.357,118.982,24.238z M118.709,24.837
			c0.018-0.018,0.035-0.036,0.047-0.056c0.258,0.093,0.403,0.223,0.434,0.317c0.016,0.038,0.002,0.054-0.002,0.06
			c-0.037,0.048-0.225,0.097-0.668-0.067c-0.002-0.001-0.004-0.001-0.008-0.002c-0.02-0.057-0.053-0.112-0.102-0.165
			C118.533,24.922,118.641,24.895,118.709,24.837z M118.482,25.364c0.016-0.023,0.023-0.047,0.035-0.071
			c0.219,0.092,0.369,0.208,0.404,0.32c0.018,0.042,0.014,0.08-0.013,0.116c-0.037,0.063-0.29,0.109-0.782-0.153l-0.045,0.081
			c0-0.003-0.001-0.006-0.002-0.008c-0.01-0.059-0.033-0.119-0.064-0.178C118.242,25.528,118.398,25.492,118.482,25.364z
			 M118.223,26.829c0.027-0.025,0.047-0.057,0.062-0.093c0.306,0.271,0.373,0.505,0.347,0.543c-0.01,0.011-0.027,0.01-0.04,0.009
			c-0.046-0.004-0.206-0.046-0.495-0.398C118.158,26.881,118.199,26.854,118.223,26.829z M118.295,26.503l-0.012,0.016
			c-0.008-0.025-0.02-0.056-0.033-0.087c0.139,0.036,0.264,0.024,0.352-0.083c0.016-0.016,0.026-0.037,0.037-0.063
			c0.225,0.155,0.357,0.349,0.375,0.467c0.004,0.029-0.002,0.043-0.004,0.047C118.973,26.84,118.736,26.843,118.295,26.503z
			 M118.697,26.099l-0.047,0.078c-0.002-0.008-0.002-0.018-0.006-0.025c-0.012-0.066-0.045-0.139-0.098-0.211
			c0.24,0.053,0.428,0.022,0.514-0.096c0.229,0.102,0.383,0.231,0.42,0.352c0.014,0.044,0.008,0.081-0.016,0.113
			C119.43,26.361,119.188,26.381,118.697,26.099z M119.122,25.664c0-0.035-0.007-0.073-0.021-0.111
			c-0.02-0.055-0.049-0.109-0.097-0.16h0.015c0.111,0,0.201-0.023,0.266-0.069c0.307,0.109,0.464,0.265,0.48,0.364
			c0.006,0.03-0.004,0.044-0.019,0.054C119.693,25.784,119.501,25.813,119.122,25.664z M119.383,25.155
			c0.004-0.037,0-0.075-0.012-0.115c-0.02-0.056-0.055-0.111-0.102-0.164c0.002,0,0.006,0.002,0.01,0.002
			c0.096,0,0.164-0.026,0.217-0.092c0.031,0.012,0.063,0.021,0.091,0.031c0.173,0.063,0.335,0.139,0.376,0.225
			c0.012,0.023,0.023,0.065-0.007,0.146C119.924,25.279,119.859,25.29,119.383,25.155z M107.177,33.245h24.104
			c0.031,0.281,0.064,0.562,0.102,0.846c-5.129,7.533-6.051,12.313-6.865,16.534c-0.084,0.427-0.166,0.845-0.25,1.263l-2.037-7.215
			h0.398v-1.342h-1.373v-3.835l0.916-0.964v-4.121h-1.338v1.446h-0.682v-1.446h-1.848v1.446h-0.451v-1.446h-1.576v4.121l0.922,0.964
			v3.835h-1.381v1.342h0.398l-2.055,7.084c-0.074-0.377-0.15-0.751-0.225-1.134c-0.814-4.219-1.737-8.999-6.865-16.532
			C107.11,33.807,107.145,33.526,107.177,33.245z M107.291,44.79c0-0.469,0.654-1.005,1.302-1.328
			c0.991-0.492,1.64-1.266,2.063-1.957c0.189,0.421,0.368,0.834,0.53,1.234c-0.162,0.624-2.468,2.066-3.395,2.527l-0.249,0.123
			l0.01,0.021c-0.092,0.053-0.182,0.104-0.258,0.147C107.3,45.316,107.305,45.058,107.291,44.79z M107.305,46.198
			c0.125-0.068,0.314-0.174,0.543-0.306c0.337,0.405,0.984,0.845,1.675,1.27c0.097,0.059,0.17,0.104,0.204,0.128
			c0.169,0.118,0.262,0.319,0.314,0.545l-0.076,0.034c-0.139,0.063-0.342,0.158-0.565,0.266
			C107.707,47.448,107.361,46.938,107.305,46.198z M109.269,48.828c0.028-0.015,0.052-0.024,0.079-0.039
			c0.062-0.029,0.117-0.058,0.18-0.087l0.583-0.273c0.002,0.122,0.001,0.236,0,0.335c-0.003,0.135-0.005,0.25,0.002,0.333
			c0.034,0.446-0.524,0.767-0.804,0.85c-0.547,0.206-0.993,0.526-1.348,0.833c0.047-0.185,0.094-0.383,0.136-0.588l0.069-0.337
			h-0.346c-0.098,0-0.227,0.011-0.381,0.028c-0.027,0.002-0.055,0.004-0.083,0.007C107.796,49.584,108.457,49.219,109.269,48.828z"
			/>
		<path fill="#1A171B" d="M54.986,69.368c-0.355,0-0.91,0.036-0.994,0.036c-0.07,0-0.721-0.036-1.255-0.036
			c-0.13,0-0.189,0.024-0.189,0.1c0,0.05,0.048,0.173,0.096,0.173c0.104,0,0.307,0.01,0.401,0.037
			c0.391,0.086,0.484,0.282,0.508,0.704c0.024,0.397,0.024,0.747,0.024,2.685v1.455c0,1.279-0.142,2.336-0.687,3.043
			c-0.426,0.533-1.135,0.896-1.858,0.896c-0.675,0-1.208-0.112-1.788-0.685c-0.509-0.508-0.888-1.276-0.888-3.065v-1.644
			c0-1.938,0-2.285,0.024-2.685c0.024-0.433,0.118-0.657,0.438-0.704c0.141-0.027,0.213-0.037,0.296-0.037
			c0.047,0,0.095-0.123,0.095-0.173c0-0.073-0.06-0.1-0.19-0.1c-0.355,0-1.064,0.036-1.171,0.036c-0.106,0-0.829-0.036-1.36-0.036
			c-0.131,0-0.19,0.024-0.19,0.1c0,0.05,0.048,0.173,0.095,0.173c0.106,0,0.308,0.01,0.402,0.037
			c0.391,0.086,0.486,0.282,0.51,0.704c0.024,0.397,0.024,0.747,0.024,2.685v1.715c0,1.814,0.449,2.685,1.029,3.27
			c0.84,0.832,2.036,0.883,2.438,0.883c0.699,0,1.587-0.123,2.438-0.92c0.947-0.881,1.089-2.371,1.089-3.714V73.07
			c0-1.938,0-2.287,0.024-2.687c0.024-0.433,0.119-0.646,0.438-0.704c0.143-0.037,0.214-0.037,0.297-0.037
			c0.045,0,0.093-0.121,0.093-0.172C55.175,69.395,55.116,69.368,54.986,69.368z"/>
		<path fill="#1A171B" d="M109.766,69.193c-3.268,0-4.664,2.846-4.664,4.854c0,2.236,1.35,4.882,4.593,4.882
			c2.854,0,4.724-2.298,4.724-5.08C114.418,70.957,112.429,69.193,109.766,69.193z M110.014,78.458
			c-2.131,0-3.787-1.862-3.787-4.756c0-2.72,1.48-4.086,3.457-4.086c1.869,0,3.598,1.603,3.598,4.581
			C113.281,77.813,111.078,78.458,110.014,78.458z"/>
		<path fill="#1A171B" d="M133.514,76.508c-0.068,0-0.186,0.051-0.209,0.188c-0.035,0.226-0.188,0.771-0.438,1.043
			c-0.475,0.511-1.174,0.621-2.061,0.621c-2.533,0-3.629-2.174-3.629-4.543c0-1.269,0.197-2.373,1.063-3.241
			c0.416-0.423,0.504-0.907,2.076-0.907c1.043,0,1.955,0.335,2.369,0.707c0.311,0.271,0.496,0.782,0.496,1.27
			c0,0.174,0.107,0.26,0.188,0.26c0.071,0,0.096-0.073,0.104-0.26c0.014-0.188,0.014-0.869,0.034-1.279
			c0.023-0.447,0.062-0.596,0.062-0.695c0-0.074-0.022-0.124-0.153-0.139c-0.429,0.047-0.758-0.098-1.207-0.184
			c-0.58-0.113-1.241-0.15-1.717-0.15c-1.824,0-2.349,0.584-3.062,1.33c-1.054,1.104-1.322,2.558-1.322,3.39
			c0,1.181,0.283,2.595,1.433,3.675c0.935,0.885,1.578,1.344,3.354,1.344c0.756,0,1.433-0.088,1.906-0.287
			c0.211-0.1,0.233-0.125,0.307-0.358c0.117-0.424,0.486-1.502,0.486-1.589C133.6,76.596,133.574,76.508,133.514,76.508z"/>
		<path fill="#1A171B" d="M167.209,78.486c-0.107,0-0.367-0.026-0.533-0.051c-0.354-0.049-0.426-0.322-0.461-0.685
			c-0.061-0.521-0.061-1.502-0.061-2.694v-1.99c0-1.938,0-2.287,0.021-2.684c0.023-0.438,0.119-0.646,0.438-0.71
			c0.146-0.022,0.216-0.036,0.298-0.036c0.047,0,0.096-0.121,0.096-0.171c0-0.075-0.06-0.1-0.188-0.1
			c-0.354,0-1.103,0.034-1.159,0.034c-0.058,0-0.808-0.034-1.195-0.034c-0.131,0-0.188,0.022-0.188,0.1
			c0,0.05,0.047,0.171,0.095,0.171c0.084,0,0.235,0.014,0.366,0.051c0.263,0.063,0.38,0.272,0.402,0.695
			c0.021,0.396,0.021,0.744,0.021,2.684v1.99c0,1.192,0,2.174-0.061,2.694c-0.045,0.36-0.104,0.636-0.342,0.685
			c-0.105,0.022-0.248,0.051-0.354,0.051c-0.072,0-0.096,0.133-0.096,0.17c0,0.076,0.059,0.101,0.188,0.101
			c0.354,0,1.104-0.036,1.158-0.036c0.06,0,0.807,0.036,1.455,0.036c0.133,0,0.189-0.036,0.189-0.101
			C167.303,78.619,167.279,78.486,167.209,78.486z"/>
		<path fill="#1A171B" d="M68.727,69.368c-0.485,0-0.875,0.036-1.007,0.036c-0.13,0-0.697-0.036-1.23-0.036
			c-0.143,0-0.237,0.013-0.237,0.087c0,0.05,0.011,0.184,0.095,0.184c0.095,0,0.367,0.012,0.58,0.063
			c0.367,0.101,0.451,0.37,0.461,1.18l0.131,6.214c-0.379-0.412-5.491-7.291-5.676-7.512c-0.021-0.031-0.045-0.063-0.074-0.083
			c-0.048-0.039-0.104-0.062-0.174-0.062c-0.041,0-0.135-0.008-0.275-0.014c-0.224-0.011-1.069-0.023-1.485-0.023
			c-0.141,0-0.213,0.023-0.213,0.099c0,0.052,0.035,0.17,0.093,0.17c0.107,0,0.368,0.015,0.592,0.076
			c0.32,0.101,0.468,0.59,0.491,1.608l-0.01,5.479c0,1.13-0.059,1.491-0.355,1.578c-0.176,0.063-0.39,0.073-0.485,0.073
			c-0.059,0-0.095,0.119-0.095,0.17c0,0.088,0.071,0.102,0.19,0.102c0.532,0,1.03-0.035,1.137-0.035
			c0.105,0,0.579,0.035,1.254,0.035c0.141,0,0.213-0.025,0.213-0.102c0-0.051-0.035-0.17-0.093-0.17
			c-0.107,0-0.368-0.014-0.592-0.073c-0.32-0.101-0.438-0.422-0.461-1.438V70.88c0.379,0.445,5.416,7.095,5.546,7.22
			c0.628,0.655,0.816,0.746,0.91,0.746c0.083,0,0.13-0.064,0.13-0.881v-7.186c0-0.742,0.048-1.018,0.438-1.104
			c0.143-0.039,0.225-0.039,0.285-0.039c0.083,0,0.13-0.133,0.13-0.183C68.941,69.381,68.857,69.368,68.727,69.368z"/>
		<path fill="#1A171B" d="M79.599,76.501c-0.084,0-0.113,0.062-0.128,0.161c-0.041,0.234-0.178,0.563-0.331,0.79
			c-0.195,0.297-0.304,0.579-0.718,0.726c-0.375,0.119-0.959,0.119-1.312,0.119c-1.392,0-1.605-0.16-1.646-1.02
			c-0.015-0.26,0-1.699,0-2.121V74.06c0-0.049,0.028-0.084,0.098-0.084c0.122,0,0.536,0.006,0.969,0.015
			c0.192,0.007,0.388,0.011,0.562,0.021c0.112,0.004,0.209,0.008,0.257,0.01c0.1,0.006,0.185,0.013,0.245,0.018l0.136,0.014
			c0.375,0.071,0.646,0.744,0.727,0.938c0.073,0.158,0.085,0.279,0.098,0.402c0.006,0.063,0.04,0.106,0.11,0.102
			c0.099-0.012,0.086-0.146,0.075-0.246c-0.008-0.087-0.026-1.029-0.022-1.279c0.001-0.412,0.051-1.109,0.044-1.185l-0.004-0.028
			c-0.009-0.05-0.035-0.066-0.07-0.066c-0.056,0-0.113,0.063-0.213,0.162c-0.128,0.123-0.327,0.629-0.668,0.655
			c-0.326,0.022-2.072,0.022-2.257,0.022c-0.072,0-0.085-0.036-0.085-0.123V69.98c0-0.088,0.028-0.127,0.085-0.127
			c0.155,0,1.704,0.014,1.946,0.039l0.076,0.006l0.167,0.019c0.602,0.085,0.898,0.81,1.033,0.958
			c0.106,0.124,0.176,0.322,0.199,0.406c0.026,0.095,0.069,0.146,0.151,0.119c0.054-0.016,0.063-0.094,0.061-0.157
			c-0.013-0.152-0.129-1.167-0.148-1.291c-0.045-0.32-0.03-0.449-0.044-0.54c-0.003-0.055-4.024-0.006-4.122-0.006
			c-0.072,0-0.966-0.035-1.606-0.035c-0.157,0-0.226,0.023-0.226,0.1c0,0.049,0.056,0.17,0.113,0.17c0.127,0,0.37,0.014,0.483,0.037
			c0.468,0.088,0.583,0.287,0.611,0.711c0.028,0.396,0.028,0.743,0.028,2.682v1.99c0,1.193,0,2.174-0.071,2.695
			c-0.057,0.361-0.128,0.635-0.413,0.684c-0.127,0.023-0.297,0.052-0.426,0.052c-0.086,0-0.114,0.133-0.114,0.17
			c0,0.075,0.072,0.101,0.228,0.101c0.427,0,1.321-0.035,1.393-0.035c0.412,0,1.363,0.072,3.507,0.072h0.185h0.311
			c0.441,0,0.534,0,0.6-0.207c0.114-0.357,0.217-1.767,0.217-1.898C79.686,76.549,79.671,76.501,79.599,76.501z"/>
		<path fill="#1A171B" d="M76.671,74.012l0.255,0.01C76.879,74.02,76.784,74.016,76.671,74.012z"/>
		<ellipse fill="#1A171B" cx="107.156" cy="59.798" rx="0.252" ry="0.263"/>
		<path fill="#1A171B" d="M108.933,60.975l0.342-0.931h0.838l0.344,0.931h0.343l-0.994-2.396h-0.074l-1.035,2.396H108.933z
			 M109.689,58.997l0.377,0.896h-0.738L109.689,58.997z"/>
		<path fill="#1A171B" d="M111.231,58.625v2.35h0.868c0.777,0,1.204-0.572,1.204-1.238c0-0.687-0.317-1.109-1.043-1.109
			L111.231,58.625L111.231,58.625z M112.99,59.734c0,0.771-0.451,1.104-0.973,1.104h-0.486v-2.092h0.568
			C112.654,58.749,112.99,59.066,112.99,59.734z"/>
		<path fill="#1A171B" d="M114.047,59.678c0.109,0,0.197-0.098,0.197-0.209c0-0.117-0.088-0.21-0.197-0.21s-0.199,0.093-0.199,0.21
			C113.848,59.58,113.938,59.678,114.047,59.678z"/>
		<polygon fill="#1A171B" points="117.059,58.625 116.062,60.439 115.146,58.625 115.091,58.625 114.742,60.975 114.982,60.975 
			115.143,59.199 115.993,60.945 116.021,60.945 116.893,59.202 117.094,60.975 117.39,60.975 117.115,58.625 		"/>
		<path fill="#1A171B" d="M118.968,58.721c0.271,0,0.446,0.088,0.628,0.274h0.041l0.068-0.257c-0.195-0.092-0.439-0.159-0.737-0.159
			c-0.716,0-1.231,0.474-1.231,1.233c0,0.676,0.398,1.207,1.189,1.207c0.285,0,0.52-0.063,0.719-0.193v-0.225h-0.037
			c-0.115,0.14-0.375,0.276-0.64,0.276c-0.616,0-0.907-0.5-0.907-1.065C118.061,59.139,118.43,58.721,118.968,58.721z"/>
		<path fill="#1A171B" d="M121.369,58.721c0.27,0,0.447,0.088,0.627,0.274h0.041l0.072-0.257c-0.197-0.092-0.441-0.159-0.74-0.159
			c-0.715,0-1.23,0.474-1.23,1.233c0,0.676,0.398,1.207,1.189,1.207c0.285,0,0.518-0.063,0.719-0.193v-0.225h-0.037
			c-0.117,0.14-0.375,0.276-0.641,0.276c-0.616,0-0.906-0.5-0.906-1.065C120.463,59.139,120.834,58.721,121.369,58.721z"/>
		<path fill="#1A171B" d="M123.773,58.721c0.27,0,0.443,0.088,0.629,0.274h0.039l0.066-0.257c-0.193-0.092-0.438-0.159-0.734-0.159
			c-0.717,0-1.23,0.474-1.23,1.233c0,0.676,0.396,1.207,1.188,1.207c0.283,0,0.521-0.063,0.721-0.193v-0.225h-0.037
			c-0.117,0.14-0.377,0.276-0.641,0.276c-0.615,0-0.906-0.5-0.906-1.065C122.865,59.139,123.234,58.721,123.773,58.721z"/>
		<polygon fill="#1A171B" points="126.705,60.975 125.936,59.65 126.643,58.625 126.414,58.625 125.854,59.529 125.324,58.625 
			124.992,58.625 125.67,59.805 124.918,60.975 125.15,60.975 125.752,59.932 126.357,60.975 		"/>
		<path fill="#1A171B" d="M128.34,58.721c0.27,0,0.445,0.088,0.627,0.274h0.041l0.07-0.257c-0.197-0.092-0.439-0.159-0.738-0.159
			c-0.717,0-1.23,0.474-1.23,1.233c0,0.676,0.396,1.207,1.189,1.207c0.283,0,0.518-0.063,0.719-0.193v-0.225h-0.037
			c-0.119,0.14-0.377,0.276-0.641,0.276c-0.617,0-0.908-0.5-0.908-1.065C127.432,59.139,127.803,58.721,128.34,58.721z"/>
		<rect x="129.539" y="58.625" fill="#1A171B" width="0.297" height="2.35"/>
		<ellipse fill="#1A171B" cx="131.123" cy="59.798" rx="0.252" ry="0.263"/>
		<path fill="#1A171B" d="M107.18,55.623c-0.139,0-0.254,0.117-0.254,0.261c0,0.146,0.115,0.267,0.254,0.267
			c0.137,0,0.248-0.118,0.248-0.267C107.428,55.74,107.316,55.623,107.18,55.623z"/>
		<path fill="#1A171B" d="M109.309,56.957c-0.236,0-0.403-0.148-0.506-0.365h-0.022l-0.069,0.313
			c0.154,0.103,0.33,0.201,0.546,0.201c0.435,0,0.816-0.222,0.816-0.727c0-0.391-0.28-0.549-0.549-0.662
			c-0.259-0.105-0.499-0.188-0.499-0.492c0-0.233,0.188-0.41,0.426-0.41c0.196,0,0.339,0.104,0.404,0.306h0.03l0.092-0.281
			c-0.126-0.114-0.286-0.17-0.489-0.17c-0.393,0-0.715,0.214-0.715,0.653c0,0.436,0.351,0.549,0.644,0.666
			c0.214,0.096,0.388,0.216,0.388,0.464C109.805,56.721,109.605,56.957,109.309,56.957z"/>
		<path fill="#1A171B" d="M114.021,55.832c0-0.809-0.62-1.169-1.229-1.169c-0.728,0-1.263,0.44-1.263,1.265
			c0,0.655,0.449,1.178,1.217,1.178C113.527,57.105,114.021,56.604,114.021,55.832z M112.75,56.984c-0.516,0-0.9-0.387-0.9-1.057
			c0-0.599,0.286-1.148,0.942-1.148c0.57,0,0.909,0.43,0.909,1.053C113.701,56.418,113.406,56.984,112.75,56.984z"/>
		<polygon fill="#1A171B" points="115.691,54.711 115.691,57.063 116.897,57.063 116.897,56.898 115.986,56.898 115.986,54.711 		
			"/>
		<path fill="#1A171B" d="M118.203,55.928c0,0.655,0.449,1.178,1.217,1.178c0.783,0,1.275-0.5,1.275-1.271
			c0-0.809-0.619-1.169-1.229-1.169C118.738,54.663,118.203,55.104,118.203,55.928z M120.376,55.832
			c0,0.586-0.296,1.152-0.951,1.152c-0.516,0-0.901-0.387-0.901-1.057c0-0.599,0.287-1.148,0.943-1.148
			C120.037,54.779,120.376,55.209,120.376,55.832z"/>
		<polygon fill="#1A171B" points="124.711,54.711 124.654,54.711 123.658,56.527 122.74,54.711 122.686,54.711 122.338,57.063 
			122.58,57.063 122.738,55.285 123.588,57.031 123.615,57.031 124.488,55.29 124.689,57.063 124.984,57.063 		"/>
		<polygon fill="#1A171B" points="127.85,54.872 127.85,54.711 126.65,54.711 126.65,57.063 127.85,57.063 127.85,56.898 
			126.947,56.898 126.947,55.884 127.75,55.884 127.75,55.725 126.947,55.725 126.947,54.872 		"/>
		<rect x="129.518" y="54.711" fill="#1A171B" width="0.295" height="2.35"/>
		<ellipse fill="#1A171B" cx="131.1" cy="55.884" rx="0.25" ry="0.261"/>
		<path fill="#1A171B" d="M42.793,78.486c-0.085-0.004-0.284,0-0.553-0.037c-0.357-0.051-0.949-0.11-1.735-0.799
			c-0.915-0.801-1.424-1.717-2.503-3.178c1.278-1.033,1.716-1.748,1.716-2.668c0-0.857-0.622-1.666-0.979-1.893
			c-0.752-0.475-1.639-0.546-2.534-0.546c-0.441,0-1.254,0.034-1.411,0.034c-0.072,0-0.967-0.034-1.604-0.034
			c-0.158,0-0.229,0.022-0.229,0.1c0,0.05,0.057,0.171,0.114,0.171c0.127,0,0.369,0.014,0.483,0.036
			c0.468,0.089,0.582,0.287,0.61,0.71c0.028,0.396,0.028,0.744,0.028,2.684v1.99c0,1.192,0,2.174-0.071,2.694
			c-0.057,0.36-0.128,0.636-0.412,0.685c-0.127,0.022-0.298,0.051-0.427,0.051c-0.085,0-0.113,0.133-0.113,0.17
			c0,0.076,0.072,0.101,0.227,0.101c0.426,0,1.321-0.036,1.336-0.036c0.07,0,0.966,0.036,1.748,0.036
			c0.154,0,0.226-0.036,0.226-0.101c0-0.037-0.028-0.17-0.113-0.17c-0.128,0-0.442-0.026-0.64-0.051
			c-0.426-0.049-0.511-0.322-0.554-0.685c-0.071-0.521-0.071-1.502-0.071-2.694v-0.199c0-0.063,0.028-0.102,0.099-0.102l1.416,0.021
			c0.086,0,0.128,0.027,0.187,0.076c0.284,0.322,0.693,1.125,1.256,1.838c0.704,0.895,1.148,1.539,1.759,1.826
			c0.369,0.174,0.725,0.235,1.521,0.235h1.008c0.256,0,0.341-0.024,0.341-0.101C42.92,78.619,42.917,78.491,42.793,78.486z
			 M36.596,74.398c-0.625,0-0.947-0.088-1.162-0.201c-0.071-0.036-0.099-0.086-0.099-0.147v-4.062c0-0.074,0.042-0.125,0.114-0.148
			c0.143-0.037,0.259-0.074,0.685-0.074c1.521,0,2.393,0.93,2.393,2.484c0,0.941-0.369,1.613-0.865,1.911
			C37.333,74.359,36.936,74.398,36.596,74.398z"/>
		<path fill="#1A171B" d="M159.35,76.508c-0.07,0-0.188,0.051-0.211,0.188c-0.035,0.226-0.188,0.771-0.438,1.043
			c-0.475,0.511-1.172,0.621-2.061,0.621c-2.533,0-3.633-2.174-3.633-4.543c0-1.269,0.203-2.373,1.066-3.241
			c0.412-0.423,0.506-0.907,2.078-0.907c1.039,0,1.951,0.335,2.367,0.707c0.309,0.271,0.496,0.782,0.496,1.27
			c0,0.174,0.105,0.26,0.188,0.26c0.071,0,0.097-0.073,0.106-0.26c0.01-0.188,0.01-0.869,0.035-1.279
			c0.022-0.447,0.059-0.596,0.059-0.695c0-0.074-0.024-0.124-0.151-0.139c-0.43,0.047-0.758-0.098-1.209-0.184
			c-0.58-0.113-1.241-0.15-1.717-0.15c-1.822,0-2.351,0.584-3.06,1.33c-1.056,1.104-1.326,2.558-1.326,3.39
			c0,1.181,0.285,2.595,1.433,3.675c0.937,0.885,1.582,1.344,3.354,1.344c0.758,0,1.433-0.088,1.905-0.287
			c0.216-0.1,0.238-0.125,0.308-0.358c0.119-0.424,0.486-1.502,0.486-1.589C159.432,76.596,159.408,76.508,159.35,76.508z"/>
		<path fill="#1A171B" d="M26.362,73.467c0.753-0.434,1.583-1.043,1.583-2.063c0-0.623-0.476-2.036-3.089-2.036
			c-0.654,0-1.208,0.036-1.549,0.036c-0.07,0-0.966-0.036-1.605-0.036c-0.156,0-0.228,0.024-0.228,0.101
			c0,0.049,0.057,0.172,0.114,0.172c0.128,0,0.37,0.01,0.483,0.034c0.468,0.087,0.582,0.285,0.61,0.707
			c0.028,0.397,0.028,0.699,0.028,2.638v2.086c0,1.193,0,2.176-0.071,2.695c-0.057,0.361-0.128,0.635-0.412,0.684
			c-0.127,0.024-0.298,0.052-0.425,0.052c-0.085,0-0.114,0.085-0.114,0.122c0,0.072,0.07,0.101,0.228,0.101
			c0.425,0,1.321-0.036,1.391-0.036c0.114,0,1.563,0.073,1.889,0.073c2.43,0,3.255-1.378,3.255-2.708
			C28.452,74.634,27.414,73.752,26.362,73.467z M23.848,69.914c0-0.074,0.042-0.111,0.17-0.135c0.228-0.051,0.802-0.063,0.958-0.063
			c1.393,0,1.918,1.104,1.918,2.136c0,0.51-0.213,0.957-0.512,1.254c-0.298,0.299-0.773,0.324-1.568,0.324
			c-0.526,0-0.782-0.037-0.868-0.05c-0.07-0.026-0.098-0.05-0.098-0.138V69.914z M25.365,78.396c-0.256,0-0.636-0.024-1.021-0.188
			c-0.44-0.188-0.44-0.359-0.482-0.969c-0.015-0.186-0.015-1.727-0.015-2.684V73.85c0-0.062,0.028-0.088,0.084-0.088
			c0.213,0,0.694,0,0.878,0.026c0.341,0.037,0.697,0.073,1.18,0.358c1.095,0.66,1.377,1.74,1.377,2.484
			C27.368,78.036,26.131,78.396,25.365,78.396z"/>
		<path fill="#1A171B" d="M180.701,69.409c-0.484,0-0.875,0.036-1.006,0.036s-0.697-0.036-1.23-0.036
			c-0.143,0-0.236,0.011-0.236,0.087c0,0.048,0.014,0.184,0.096,0.184c0.096,0,0.365,0.014,0.58,0.063
			c0.365,0.1,0.447,0.374,0.463,1.182l0.129,6.211c-0.379-0.408-5.49-7.291-5.678-7.508c-0.021-0.033-0.045-0.063-0.072-0.085
			c-0.047-0.037-0.104-0.063-0.176-0.063c-0.041,0-0.135-0.004-0.271-0.011c-0.225-0.011-1.068-0.026-1.484-0.026
			c-0.145,0-0.215,0.026-0.215,0.103c0,0.05,0.037,0.17,0.096,0.17c0.105,0,0.369,0.015,0.592,0.076
			c0.32,0.099,0.467,0.59,0.49,1.606l-0.008,5.479c0,1.13-0.061,1.487-0.355,1.576c-0.178,0.063-0.393,0.073-0.486,0.073
			c-0.059,0-0.096,0.121-0.096,0.172c0,0.088,0.072,0.099,0.189,0.099c0.533,0,1.031-0.037,1.137-0.037
			c0.107,0,0.582,0.037,1.256,0.037c0.143,0,0.213-0.024,0.213-0.099c0-0.051-0.035-0.172-0.096-0.172
			c-0.105,0-0.367-0.012-0.592-0.073c-0.32-0.099-0.438-0.423-0.461-1.44l0.002-6.094c0.377,0.447,5.416,7.098,5.547,7.221
			c0.627,0.657,0.813,0.744,0.908,0.744c0.084,0,0.131-0.059,0.131-0.88v-7.181c0-0.745,0.047-1.021,0.438-1.106
			c0.143-0.036,0.227-0.036,0.283-0.036c0.082,0,0.131-0.136,0.131-0.184C180.916,69.42,180.832,69.409,180.701,69.409z"/>
		<path fill="#1A171B" d="M88.814,78.791c-0.018,0-0.031,0-0.047-0.002h-0.158L88.814,78.791z"/>
		<path fill="#1A171B" d="M90.299,76.497c-0.085,0-0.113,0.063-0.127,0.163c-0.025,0.135-0.246,0.636-0.524,1.008
			c-0.203,0.271-0.442,0.445-0.618,0.51c-0.178,0.055-0.594,0.131-0.751,0.131c-1.108,0-1.478-0.088-1.706-0.285
			c-0.256-0.225-0.312-1.018-0.312-2.844v-2.113c0-1.938,0-2.285,0.029-2.685c0.026-0.433,0.14-0.646,0.554-0.704
			c0.17-0.027,0.369-0.039,0.469-0.039c0.057,0,0.113-0.121,0.113-0.17c0-0.076-0.07-0.101-0.227-0.101
			c-0.428,0-1.465,0.036-1.535,0.036c-0.072,0-0.967-0.036-1.604-0.036c-0.157,0-0.229,0.022-0.229,0.101
			c0,0.049,0.058,0.17,0.114,0.17c0.127,0,0.369,0.012,0.482,0.039c0.469,0.084,0.584,0.284,0.611,0.704
			c0.028,0.397,0.028,0.747,0.028,2.685v1.992c0,1.192,0,2.174-0.071,2.694c-0.057,0.36-0.127,0.634-0.412,0.685
			c-0.128,0.025-0.298,0.047-0.426,0.047c-0.086,0-0.113,0.137-0.113,0.172c0,0.074,0.071,0.103,0.227,0.103
			c0.426,0,1.264-0.036,1.393-0.036c0.723,0,1.535,0.057,3.104,0.068l0.492,0.002h-0.094c0,0,0.418-0.02,0.424-0.031
			c0.211-0.017,0.795-1.939,0.795-2.074C90.385,76.547,90.371,76.497,90.299,76.497z"/>
		<path fill="#1A171B" d="M100.91,76.497c-0.084,0-0.113,0.063-0.127,0.163c-0.025,0.135-0.247,0.636-0.523,1.008
			c-0.205,0.271-0.443,0.445-0.619,0.51c-0.179,0.055-0.594,0.131-0.751,0.131c-1.109,0-1.478-0.088-1.706-0.285
			c-0.256-0.225-0.313-1.018-0.313-2.844v-2.113c0-1.938,0-2.285,0.029-2.685c0.027-0.433,0.143-0.646,0.554-0.704
			c0.172-0.027,0.37-0.039,0.469-0.039c0.057,0,0.114-0.121,0.114-0.17c0-0.076-0.072-0.101-0.229-0.101
			c-0.426,0-1.463,0.036-1.532,0.036c-0.071,0-0.967-0.036-1.605-0.036c-0.157,0-0.228,0.022-0.228,0.101
			c0,0.049,0.057,0.17,0.113,0.17c0.129,0,0.367,0.012,0.482,0.039c0.469,0.084,0.583,0.284,0.611,0.704
			c0.028,0.397,0.028,0.747,0.028,2.685v1.992c0,1.192,0,2.174-0.071,2.694c-0.057,0.36-0.128,0.634-0.411,0.685
			c-0.128,0.025-0.298,0.047-0.427,0.047c-0.084,0-0.113,0.137-0.113,0.172c0,0.074,0.071,0.103,0.227,0.103
			c0.427,0,1.266-0.036,1.394-0.036c0.722,0,1.534,0.057,3.103,0.068l0.49,0.002h-0.093c0,0,0.419-0.02,0.425-0.031
			c0.211-0.017,0.795-1.939,0.795-2.074C100.996,76.547,100.982,76.497,100.91,76.497z"/>
		<path fill="#1A171B" d="M99.425,78.791c-0.017,0-0.029,0-0.046-0.002h-0.157L99.425,78.791z"/>
		<path fill="#1A171B" d="M202.203,76.497c-0.086,0-0.113,0.063-0.129,0.163c-0.023,0.135-0.246,0.636-0.525,1.008
			c-0.201,0.271-0.441,0.445-0.615,0.51c-0.182,0.055-0.596,0.131-0.754,0.131c-1.105,0-1.479-0.088-1.703-0.285
			c-0.258-0.225-0.313-1.018-0.313-2.844v-2.113c0-1.938,0-2.285,0.027-2.685c0.027-0.433,0.145-0.646,0.557-0.704
			c0.172-0.027,0.365-0.039,0.467-0.039c0.063,0,0.115-0.121,0.115-0.17c0-0.076-0.07-0.101-0.229-0.101
			c-0.427,0-1.463,0.036-1.531,0.036c-0.071,0-0.967-0.036-1.606-0.036c-0.155,0-0.229,0.022-0.229,0.101
			c0,0.049,0.061,0.17,0.115,0.17c0.127,0,0.369,0.012,0.482,0.039c0.469,0.084,0.582,0.284,0.611,0.704
			c0.029,0.397,0.029,0.747,0.029,2.685v1.992c0,1.192,0,2.174-0.07,2.694c-0.059,0.36-0.129,0.634-0.412,0.685
			c-0.129,0.025-0.301,0.047-0.426,0.047c-0.088,0-0.113,0.137-0.113,0.172c0,0.074,0.068,0.103,0.223,0.103
			c0.43,0,1.268-0.036,1.396-0.036c0.721,0,1.535,0.057,3.102,0.068l0.492,0.002h-0.094c0,0,0.418-0.02,0.422-0.031
			c0.213-0.017,0.797-1.939,0.797-2.074C202.287,76.547,202.271,76.497,202.203,76.497z"/>
		<path fill="#1A171B" d="M200.715,78.791c-0.014,0-0.027,0-0.045-0.002h-0.158L200.715,78.791z"/>
		<path fill="#1A171B" d="M211.201,78.791c-0.016,0-0.027,0-0.045-0.002h-0.16L211.201,78.791z"/>
		<path fill="#1A171B" d="M212.688,76.497c-0.084,0-0.109,0.063-0.127,0.163c-0.023,0.135-0.246,0.636-0.523,1.008
			c-0.203,0.271-0.439,0.445-0.615,0.51c-0.18,0.055-0.596,0.131-0.754,0.131c-1.105,0-1.479-0.088-1.705-0.285
			c-0.254-0.225-0.313-1.018-0.313-2.844v-2.113c0-1.938,0-2.285,0.025-2.685c0.031-0.433,0.145-0.646,0.557-0.704
			c0.172-0.027,0.367-0.039,0.469-0.039c0.059,0,0.113-0.121,0.113-0.17c0-0.076-0.07-0.101-0.229-0.101
			c-0.426,0-1.463,0.036-1.531,0.036c-0.072,0-0.967-0.036-1.607-0.036c-0.154,0-0.227,0.022-0.227,0.101
			c0,0.049,0.057,0.17,0.113,0.17c0.129,0,0.367,0.012,0.484,0.039c0.467,0.084,0.58,0.284,0.607,0.704
			c0.029,0.397,0.029,0.747,0.029,2.685v1.992c0,1.192,0,2.174-0.072,2.694c-0.057,0.36-0.127,0.634-0.408,0.685
			c-0.129,0.025-0.303,0.047-0.43,0.047c-0.084,0-0.113,0.137-0.113,0.172c0,0.074,0.07,0.103,0.227,0.103
			c0.43,0,1.268-0.036,1.396-0.036c0.721,0,1.529,0.057,3.102,0.068l0.49,0.002h-0.092c0,0,0.418-0.02,0.422-0.031
			c0.213-0.017,0.797-1.939,0.797-2.074C212.773,76.547,212.758,76.497,212.688,76.497z"/>
		<path fill="#1A171B" d="M191.771,76.501c-0.088,0-0.115,0.062-0.129,0.161c-0.043,0.234-0.184,0.563-0.33,0.79
			c-0.197,0.297-0.307,0.579-0.721,0.726c-0.377,0.119-0.961,0.119-1.313,0.119c-1.391,0-1.604-0.16-1.647-1.02
			c-0.014-0.26,0-1.699,0-2.121V74.06c0-0.049,0.027-0.084,0.101-0.084c0.121,0,0.533,0.006,0.968,0.015
			c0.192,0.007,0.389,0.011,0.563,0.021c0.11,0.004,0.209,0.008,0.254,0.01c0.104,0.006,0.187,0.013,0.246,0.018l0.137,0.014
			c0.373,0.071,0.646,0.744,0.729,0.938c0.07,0.158,0.082,0.279,0.099,0.402c0.004,0.063,0.037,0.106,0.108,0.102
			c0.101-0.012,0.084-0.146,0.072-0.246c-0.007-0.087-0.022-1.029-0.021-1.279c0.002-0.412,0.053-1.109,0.045-1.185l-0.007-0.028
			c-0.006-0.05-0.03-0.066-0.065-0.066c-0.057,0-0.112,0.063-0.217,0.162c-0.125,0.123-0.324,0.629-0.666,0.655
			c-0.326,0.022-2.072,0.022-2.261,0.022c-0.069,0-0.084-0.036-0.084-0.123V69.98c0-0.088,0.027-0.127,0.084-0.127
			c0.158,0,1.705,0.014,1.947,0.039l0.076,0.006l0.168,0.019c0.6,0.085,0.897,0.81,1.03,0.958c0.108,0.124,0.177,0.322,0.201,0.406
			c0.024,0.095,0.067,0.146,0.151,0.119c0.054-0.016,0.062-0.094,0.06-0.157c-0.013-0.152-0.129-1.167-0.146-1.291
			c-0.045-0.32-0.031-0.449-0.045-0.54c-0.004-0.055-4.022-0.006-4.123-0.006c-0.069,0-0.965-0.035-1.604-0.035
			c-0.156,0-0.229,0.023-0.229,0.1c0,0.049,0.058,0.17,0.114,0.17c0.127,0,0.369,0.014,0.482,0.037
			c0.469,0.088,0.581,0.287,0.61,0.711c0.026,0.396,0.026,0.743,0.026,2.682v1.99c0,1.193,0,2.174-0.071,2.695
			c-0.058,0.361-0.125,0.635-0.41,0.684c-0.129,0.023-0.299,0.052-0.427,0.052c-0.086,0-0.114,0.133-0.114,0.17
			c0,0.075,0.071,0.101,0.229,0.101c0.428,0,1.32-0.035,1.393-0.035c0.412,0,1.361,0.072,3.508,0.072h0.184h0.311
			c0.443,0,0.535,0,0.604-0.207c0.112-0.357,0.215-1.767,0.215-1.898C191.855,76.549,191.84,76.501,191.771,76.501z"/>
	</g>
</g>
<g>
	<polygon fill="#FFFFFF" points="81.746,71.97 81.746,73.854 81.746,75.722 82.122,75.722 82.122,73.854 82.122,71.97 	"/>
	<path fill="#FFFFFF" d="M85.12,71.97h-0.298l-0.753,1.868l-0.77,1.884h0.393l0.22-0.564l0.22-0.55h1.633l0.204,0.55l0.22,0.564
		h0.393l-0.722-1.884L85.12,71.97L85.12,71.97z M85.654,74.294h-1.396l0.706-1.821L85.654,74.294L85.654,74.294z"/>
	<polygon fill="#FFFFFF" points="90.726,73.854 90.726,71.97 90.349,71.97 90.349,73.556 90.349,75.109 89.266,73.556 88.198,71.97 
		87.837,71.97 87.837,73.854 87.837,75.722 88.214,75.722 88.214,74.137 88.214,72.598 89.266,74.152 90.349,75.722 90.726,75.722 	
		"/>
	<polygon fill="#FFFFFF" points="92.719,73.618 92.719,72.315 93.74,72.315 94.808,72.315 94.808,71.97 93.583,71.97 92.343,71.97 
		92.343,73.854 92.343,75.722 93.63,75.722 94.918,75.722 94.918,75.393 93.803,75.393 92.719,75.393 92.719,73.964 93.646,73.964 
		94.604,73.964 94.604,73.618 93.63,73.618 	"/>
	<polygon fill="#FFFFFF" points="107.131,74.78 107.131,73.885 108.042,73.885 108.984,73.885 108.984,73.556 108.027,73.556 
		107.131,73.556 107.131,72.315 108.151,72.315 109.204,72.315 109.204,71.97 107.979,71.97 106.755,71.97 106.755,73.854 
		106.755,75.722 107.131,75.722 	"/>
	<path fill="#FFFFFF" d="M110.695,73.257v1.24c0.016,0.864,0.486,1.304,1.382,1.319c0.895-0.016,1.366-0.455,1.382-1.319v-1.24
		V71.97h-0.361v1.271v1.256c-0.11,0.738-0.455,1.053-1.021,0.974c-0.565,0.079-0.896-0.235-1.005-0.974v-1.256V71.97h-0.377V73.257
		L110.695,73.257z"/>
	<path fill="#FFFFFF" d="M116.677,71.97h-0.816h-0.848v1.884v1.868h0.377v-0.848v-0.801h0.832v0.016l0.581,0.77l0.612,0.863h0.471
		l-0.628-0.863l-0.581-0.816h0.063c0.675-0.078,1.021-0.424,1.035-1.036C117.808,72.425,117.446,72.079,116.677,71.97L116.677,71.97
		z M116.535,72.315c0.581,0,0.88,0.235,0.864,0.69c0.078,0.408-0.236,0.644-0.91,0.722h-1.1v-1.412H116.535L116.535,72.315z"/>
	<path fill="#FFFFFF" d="M121.701,72.724v-0.016c-0.221-0.533-0.659-0.817-1.335-0.832c-0.69,0.015-1.084,0.329-1.193,0.958
		c0.109,0.675,0.519,1.051,1.226,1.099c0.596,0.078,0.926,0.346,1.004,0.8c-0.047,0.472-0.376,0.723-1.021,0.738
		c-0.55-0.016-0.895-0.282-1.036-0.831l-0.361,0.125v0.016c0.173,0.675,0.644,1.021,1.397,1.052
		c0.895-0.016,1.366-0.408,1.397-1.161c-0.142-0.676-0.55-1.053-1.256-1.101c-0.581-0.062-0.911-0.313-0.989-0.736
		c0.078-0.394,0.346-0.598,0.832-0.613c0.439,0,0.769,0.235,0.989,0.691L121.701,72.724L121.701,72.724z"/>
	<polygon fill="#FFFFFF" points="124.275,72.315 124.841,72.315 125.438,72.315 125.438,71.97 124.071,71.97 122.721,71.97 
		122.721,72.315 123.334,72.315 123.898,72.315 123.898,74.011 123.898,75.722 124.275,75.722 124.275,74.011 	"/>
	<polygon fill="#FFFFFF" points="129.001,73.964 129.001,73.618 128.027,73.618 127.117,73.618 127.117,72.315 128.138,72.315 
		129.205,72.315 129.205,71.97 127.98,71.97 126.74,71.97 126.74,73.854 126.74,75.722 128.027,75.722 129.314,75.722 
		129.314,75.393 128.2,75.393 127.117,75.393 127.117,73.964 128.043,73.964 	"/>
	<polygon fill="#FFFFFF" points="133.616,73.854 133.616,71.97 133.239,71.97 133.239,73.556 133.239,75.109 132.156,73.556 
		131.09,71.97 130.729,71.97 130.729,73.854 130.729,75.722 131.104,75.722 131.104,74.137 131.104,72.598 132.156,74.152 
		133.239,75.722 133.616,75.722 	"/>
	<path fill="#FFFFFF" d="M136.034,71.97h-0.832v1.884v1.868h0.848h0.816c0.848-0.094,1.257-0.438,1.226-1.036
		c-0.017-0.549-0.314-0.879-0.896-0.989c0.533-0.109,0.785-0.392,0.738-0.848c0.078-0.455-0.299-0.754-1.114-0.879H136.034
		L136.034,71.97z M136.726,73.885c0.644,0.016,0.973,0.283,0.988,0.801c0.016,0.393-0.266,0.629-0.848,0.707h-1.287v-1.508H136.726
		L136.726,73.885z M137.557,72.927c0,0.409-0.281,0.613-0.848,0.629h-1.13v-1.24h1.161C137.307,72.3,137.572,72.504,137.557,72.927
		L137.557,72.927z"/>
	<polygon fill="#FFFFFF" points="140.964,72.315 142.032,72.315 142.032,71.97 140.808,71.97 139.567,71.97 139.567,73.854 
		139.567,75.722 140.854,75.722 142.142,75.722 142.142,75.393 141.011,75.393 139.944,75.393 139.944,73.964 140.87,73.964 
		141.827,73.964 141.827,73.618 140.854,73.618 139.944,73.618 139.944,72.315 	"/>
	<path fill="#FFFFFF" d="M143.586,71.97v1.884v1.868h0.377v-0.848v-0.801h0.832l0.597,0.816l0.597,0.832h0.471l-0.628-0.863
		l-0.581-0.816h0.063c0.675-0.078,1.021-0.424,1.036-1.036c0.047-0.581-0.33-0.927-1.1-1.036h-0.816L143.586,71.97L143.586,71.97z
		 M143.963,73.728v-1.412h1.146c0.581,0,0.88,0.235,0.864,0.69c0.078,0.408-0.221,0.644-0.911,0.722H143.963L143.963,73.728z"/>
	<path fill="#FFFFFF" d="M150.29,72.991v0.015l0.345-0.172v-0.017c-0.267-0.628-0.77-0.941-1.476-0.941
		c-0.581,0.015-1.02,0.219-1.287,0.612c-0.267,0.392-0.408,0.832-0.408,1.35c0.016,1.288,0.597,1.947,1.727,1.994
		c0.503-0.031,0.863-0.142,1.084-0.346l0.314-0.392v-0.566v-0.612h-0.692h-0.706v0.33h0.55h0.534v0.738h-0.016
		c-0.079,0.234-0.439,0.392-1.068,0.486c-0.612-0.047-0.989-0.267-1.146-0.659c-0.157-0.408-0.22-0.738-0.204-0.974
		c-0.016-0.941,0.424-1.476,1.35-1.617C149.709,72.221,150.086,72.473,150.29,72.991L150.29,72.991z"/>
	<path fill="#FFFFFF" d="M77.365,71.97v1.884v1.868h0.612h0.564C79.687,75.613,80.3,75,80.41,73.854
		c-0.11-1.146-0.723-1.774-1.869-1.884h-0.564H77.365L77.365,71.97z M77.742,72.347h0.8c0.911,0.078,1.414,0.58,1.492,1.507
		c-0.078,0.911-0.581,1.413-1.492,1.491h-0.8V72.347L77.742,72.347z"/>
	<polygon fill="#FFFFFF" points="97.838,74.654 98.292,73.54 97.932,73.54 97.602,74.372 97.288,75.173 97.021,74.372 96.754,73.54 
		96.409,73.54 96.785,74.654 97.162,75.722 97.414,75.722 	"/>
	<path fill="#FFFFFF" d="M101.668,74.64c-0.031-0.724-0.393-1.1-1.067-1.131c-0.676,0.031-1.036,0.407-1.067,1.131
		c0.031,0.722,0.392,1.098,1.067,1.146C101.275,75.737,101.637,75.361,101.668,74.64L101.668,74.64z M100.601,73.792
		c0.471,0.046,0.723,0.329,0.738,0.848c-0.016,0.549-0.268,0.831-0.738,0.847c-0.471-0.016-0.723-0.298-0.738-0.847
		C99.878,74.121,100.13,73.838,100.601,73.792L100.601,73.792z"/>
	<polygon fill="#FFFFFF" points="104.604,73.54 104.604,74.403 104.604,75.235 104.008,74.403 103.395,73.556 103.097,73.556 
		103.097,74.64 103.097,75.722 103.395,75.722 103.395,74.858 103.395,74.026 104.008,74.858 104.62,75.706 104.918,75.706 
		104.918,74.624 104.918,73.54 	"/>
	<path fill="#FFFFFF" d="M150.619,37.87v-9.702h-27.097v0.282h3.453L111.81,64.402l-1.806-4.254c2.59-3.407,3.925-7.41,4.003-11.995
		c-0.142-5.668-2.088-10.377-5.84-14.129c-3.752-3.768-8.462-5.715-14.113-5.856H77.365v0.282h3.94v39.374h-3.94v0.3h16.689
		c5.432-0.126,10-1.948,13.721-5.464l2.496,5.934l16.972-40.002v39.232h-3.721v0.3h10.408v-0.3h-3.704V47.745h4.615
		c2.308-0.031,4.238,0.408,5.777,1.303c1.538,0.896,2.339,2.48,2.402,4.758h0.281V41.387h-0.281
		c-0.063,2.261-0.864,3.847-2.402,4.757c-1.539,0.896-3.47,1.335-5.777,1.304h-4.615V28.45h10.879
		c6.076,0.017,9.169,3.156,9.247,9.42L150.619,37.87L150.619,37.87z M110.601,48.154c-0.015,3.297-0.628,6.311-1.836,9.042
		L96.816,29.047c4.35,1.162,7.709,3.47,10.111,6.908C109.346,39.394,110.569,43.459,110.601,48.154L110.601,48.154z M91.84,28.45
		l1.444,0.063l13.564,32.011c-1.601,2.246-3.674,4.019-6.201,5.322c-2.527,1.303-5.464,1.963-8.808,1.978h-7.488V28.45H91.84
		L91.84,28.45z"/>
</g>
</svg>
