<?xml version="1.0" encoding="utf-8"?>
<!-- Generator: Adobe Illustrator 17.0.2, SVG Export Plug-In . SVG Version: 6.00 Build 0)  -->
<!DOCTYPE svg PUBLIC "-//W3C//DTD SVG 1.1//EN" "http://www.w3.org/Graphics/SVG/1.1/DTD/svg11.dtd">
<svg version="1.1" id="Layer_1" xmlns:sketch="http://www.bohemiancoding.com/sketch/ns"
	 xmlns="http://www.w3.org/2000/svg" xmlns:xlink="http://www.w3.org/1999/xlink" x="0px" y="0px" width="349.819px"
	 height="38.566px" viewBox="5.78 -11.554 349.819 38.566" enable-background="new 5.78 -11.554 349.819 38.566"
	 xml:space="preserve">
<title>logo</title>
<desc>Created with Sketch.</desc>
<g id="_x30_.6" sketch:type="MSPage">
	<g id="home---1240-WN-FR" transform="translate(-49.000000, -83.000000)" sketch:type="MSArtboardGroup">
		<g id="header-3" transform="translate(-1.000000, 0.000000)" sketch:type="MSLayerGroup">
			<g id="logo" transform="translate(50.000000, 76.000000)" sketch:type="MSShapeGroup">
				<g id="Imported-Layers" transform="translate(1.000000, 7.000000)">
					<path id="Fill-1" fill="#FFFFFF" d="M31.25-10.201h17.737v2.008H32.695V6.072h15.633v2.008H32.695v15.57h16.48v2.011H31.25
						V-10.201"/>
					<path id="Fill-2" fill="#FFFFFF" d="M54.648-10.201h12.109c4.309,0,6.54,3.214,6.54,8.842c0,3.511-1.005,7.078-4.403,8.234v0.1
						c4.372,0.702,5.16,5.773,5.16,8.837c0,3.867-1.322,9.846-7.518,9.846H54.648V-10.201L54.648-10.201z M56.096,6.07h9.999
						c1.163,0,5.757,0,5.757-7.283c0-6.982-3.586-6.982-5.977-6.982h-9.778L56.096,6.07L56.096,6.07z M56.096,23.649H66.22
						c1.132,0,6.385,0,6.385-8.034c0-7.534-4.276-7.534-6.761-7.534h-9.748L56.096,23.649L56.096,23.649z"/>
					<path id="Fill-3" fill="#FFFFFF" d="M80.876-10.201h17.926v2.008h-16.48V6.072h15.631v2.008H82.323v15.57h16.48v2.011H80.876
						V-10.201"/>
					<path id="Fill-4" fill="#FFFFFF" d="M126.413,12.047c-0.502,6.83-4.308,14.413-11.037,14.413
						c-6.825,0-11.95-6.879-11.95-18.732c0-8.688,3.71-18.732,11.95-18.732c5.408,0,9.528,4.069,10.66,12.055h-1.447
						c-1.069-6.882-5-10.043-9.213-10.043c-6.415,0-10.505,7.679-10.505,16.722c0,8.988,3.615,16.723,10.505,16.723
						c4.968,0,8.743-4.618,9.592-12.404h1.445"/>
					<path id="Fill-5" fill="#FFFFFF" d="M153.081,12.047c-0.503,6.83-4.308,14.413-11.038,14.413
						c-6.825,0-11.95-6.879-11.95-18.732c0-8.688,3.711-18.732,11.95-18.732c5.408,0,9.528,4.069,10.66,12.055h-1.445
						c-1.071-6.882-5-10.043-9.215-10.043c-6.415,0-10.504,7.679-10.504,16.722c0,8.988,3.617,16.723,10.504,16.723
						c4.968,0,8.743-4.618,9.593-12.404h1.445"/>
					<path id="Fill-6" fill="#FFFFFF" d="M221.407-10.686h2.049v36.826h-2.049V-10.686z"/>
					<path id="Fill-7" fill="#FFFFFF" d="M251.565-10.686V21.22l-16.381-31.906h-2.27v36.828h2.051V-5.759l16.38,31.901h2.269
						v-36.828H251.565"/>
					<path id="Fill-8" fill="#FFFFFF" d="M296.838-11.484c-9.665,0-12.219,12.566-12.219,19.212c0,6.649,2.554,19.218,12.219,19.218
						c9.667,0,12.222-12.569,12.222-19.218C309.06,1.082,306.506-11.484,296.838-11.484L296.838-11.484z M296.838,23.968
						c-6.678,0-10.171-8.17-10.171-16.24c0-8.068,3.493-16.24,10.171-16.24S307.01-0.34,307.01,7.728
						C307.01,15.799,303.516,23.968,296.838,23.968L296.838,23.968z"/>
					<path id="Fill-9" fill="#FFFFFF" d="M332.427-7.709v-2.976h-16.893v36.828h2.051V8.562h14.025V5.589h-14.025V-7.709H332.427"/>
					<path id="Fill-10" fill="#FFFFFF" d="M354.599-7.709v-2.976h-16.894v36.828h2.052V8.562h14.026V5.589h-14.026V-7.709H354.599"
						/>
					<path id="Fill-11" fill="#FFFFFF" d="M166.449-9.396h1.635l10.314,35.856h-1.633l-1.636-5.459h-15.716l-1.643,5.459h-1.636
						L166.449-9.396L166.449-9.396z M159.977,18.99h14.586l-7.297-25.778L159.977,18.99L159.977,18.99z"/>
					<path id="Fill-12" fill="#FFFFFF" d="M209.55-10.172l-10.729,32.401l-10.732-32.401h-2.653v36.825h2.051V-4.724l10.429,31.377
						h1.808l10.429-31.38v31.38h2.049v-36.825H209.55"/>
					<path id="Fill-13" fill="#FFFFFF" d="M23.745,25.416L17.24,8.051H6.175v17.365H4.78v-35.38h12.145
						c0.301,0,0.711,0.02,1.228,0.052c0.485,0.034,1.04,0.134,1.649,0.302c0.582,0.165,1.187,0.435,1.795,0.796
						c0.58,0.35,1.11,0.864,1.578,1.539c0.462,0.666,0.849,1.525,1.151,2.547c0.302,1.016,0.454,2.284,0.454,3.769
						c0,1.648-0.176,3.013-0.526,4.057c-0.355,1.053-0.802,1.918-1.334,2.571c-0.539,0.66-1.143,1.153-1.793,1.474
						c-0.675,0.333-1.326,0.571-1.933,0.703l-0.579,0.126l6.683,17.44h-1.552V25.416z M6.175,6.167h11.404
						c1.177,0,2.153-0.242,2.903-0.717c0.755-0.476,1.357-1.082,1.785-1.8c0.434-0.722,0.734-1.517,0.892-2.367
						c0.151-0.811,0.228-1.562,0.228-2.244c0-0.674-0.077-1.428-0.228-2.239c-0.157-0.848-0.458-1.645-0.892-2.367
						c-0.427-0.712-1.027-1.32-1.785-1.803c-0.75-0.473-1.725-0.714-2.903-0.714H6.175V6.167L6.175,6.167z"/>
					<path id="Fill-14" fill="#FFFFFF" d="M282.089-11.554h-3.448L262.805,7.467v-18.76h-2.096v37.952h2.096V7.882l15.603,19.13
						h3.682l-15.99-19.314L282.089-11.554"/>
				</g>
			</g>
		</g>
	</g>
</g>
</svg>
