<?xml version="1.0" encoding="utf-8"?>
<!-- Generator: Adobe Illustrator 17.0.2, SVG Export Plug-In . SVG Version: 6.00 Build 0)  -->
<!DOCTYPE svg PUBLIC "-//W3C//DTD SVG 1.1//EN" "http://www.w3.org/Graphics/SVG/1.1/DTD/svg11.dtd">
<svg version="1.1" id="Layer_1" xmlns:sketch="http://www.bohemiancoding.com/sketch/ns"
	 xmlns="http://www.w3.org/2000/svg" xmlns:xlink="http://www.w3.org/1999/xlink" x="0px" y="0px" width="352.199px"
	 height="25.009px" viewBox="0.78 0.002 352.199 25.009" enable-background="new 0.78 0.002 352.199 25.009" xml:space="preserve">
<title>logo</title>
<desc>Created with Sketch.</desc>
<g id="_x30_.6" sketch:type="MSPage">
	<g id="home---1240-WN-FR" transform="translate(-49.000000, -83.000000)" sketch:type="MSArtboardGroup">
		<g id="header-3" transform="translate(-1.000000, 0.000000)" sketch:type="MSLayerGroup">
			<g id="logo" transform="translate(50.000000, 76.000000)" sketch:type="MSShapeGroup">
				<g id="Imported-Layers" transform="translate(1.000000, 7.000000)">
					<path id="Fill-1" fill="#FFFFFF" d="M26.43,0.879h17.858v1.302H27.885v9.251h15.739v1.302H27.885v10.097h16.592v1.304H26.43
						V0.879"/>
					<path id="Fill-2" fill="#FFFFFF" d="M49.987,0.879h12.191c4.338,0,6.584,2.084,6.584,5.734c0,2.277-1.012,4.59-4.433,5.34
						v0.065c4.402,0.455,5.195,3.744,5.195,5.731c0,2.508-1.331,6.385-7.569,6.385H49.987V0.879L49.987,0.879z M51.445,11.431
						h10.067c1.171,0,5.796,0,5.796-4.723c0-4.528-3.61-4.528-6.018-4.528h-9.845V11.431L51.445,11.431z M51.445,22.831h10.193
						c1.14,0,6.428,0,6.428-5.21c0-4.886-4.305-4.886-6.807-4.886h-9.814V22.831L51.445,22.831z"/>
					<path id="Fill-3" fill="#FFFFFF" d="M76.394,0.879h18.048v1.302H77.85v9.251h15.737v1.302H77.85v10.097h16.592v1.304H76.394
						V0.879"/>
					<path id="Fill-4" fill="#FFFFFF" d="M122.24,15.307c-0.505,4.429-4.337,9.347-11.112,9.347
						c-6.871,0-12.031-4.461-12.031-12.148c0-5.634,3.735-12.148,12.031-12.148c5.445,0,9.593,2.639,10.733,7.818h-1.457
						c-1.076-4.463-5.034-6.513-9.276-6.513c-6.459,0-10.576,4.98-10.576,10.844c0,5.829,3.64,10.845,10.576,10.845
						c5.002,0,8.802-2.995,9.657-8.044H122.24"/>
					<path id="Fill-5" fill="#FFFFFF" d="M149.09,15.307c-0.506,4.429-4.337,9.347-11.113,9.347
						c-6.871,0-12.031-4.461-12.031-12.148c0-5.634,3.736-12.148,12.031-12.148c5.445,0,9.593,2.639,10.733,7.818h-1.455
						c-1.078-4.463-5.034-6.513-9.278-6.513c-6.459,0-10.575,4.98-10.575,10.844c0,5.829,3.642,10.845,10.575,10.845
						c5.002,0,8.802-2.995,9.658-8.044H149.09"/>
					<path id="Fill-6" fill="#FFFFFF" d="M217.881,0.565h2.063v23.882h-2.063V0.565z"/>
					<path id="Fill-7" fill="#FFFFFF" d="M248.244,0.565v20.691L231.752,0.565h-2.285v23.883h2.065V3.76l16.491,20.688h2.284V0.565
						H248.244"/>
					<path id="Fill-8" fill="#FFFFFF" d="M293.825,0.047c-9.731,0-12.302,8.149-12.302,12.459c0,4.312,2.571,12.463,12.302,12.463
						c9.733,0,12.305-8.151,12.305-12.463C306.13,8.196,303.558,0.047,293.825,0.047L293.825,0.047z M293.825,23.038
						c-6.723,0-10.24-5.298-10.24-10.532c0-5.232,3.517-10.532,10.24-10.532c6.723,0,10.241,5.3,10.241,10.532
						C304.066,17.74,300.548,23.038,293.825,23.038L293.825,23.038z"/>
					<path id="Fill-9" fill="#FFFFFF" d="M329.656,2.495V0.565h-17.008v23.883h2.065V13.047h14.12v-1.928h-14.12V2.495H329.656"/>
					<path id="Fill-10" fill="#FFFFFF" d="M351.979,2.495V0.565H334.97v23.883h2.066V13.047h14.121v-1.928h-14.121V2.495H351.979"/>
					<path id="Fill-11" fill="#FFFFFF" d="M162.549,1.401h1.646l10.384,23.253h-1.644l-1.647-3.54h-15.823l-1.654,3.54h-1.647
						L162.549,1.401L162.549,1.401z M156.033,19.81h14.685l-7.347-16.717L156.033,19.81L156.033,19.81z"/>
					<path id="Fill-12" fill="#FFFFFF" d="M205.943,0.898L195.141,21.91L184.336,0.898h-2.671v23.881h2.065V4.431l10.5,20.348h1.82
						l10.5-20.35v20.35h2.063V0.898H205.943"/>
					<path id="Fill-13" fill="#FFFFFF" d="M18.874,23.977l-6.549-11.261H1.184v11.261H-0.22V1.033h12.228
						c0.303,0,0.716,0.013,1.236,0.034c0.488,0.022,1.047,0.087,1.66,0.196c0.586,0.107,1.195,0.282,1.807,0.516
						c0.584,0.227,1.118,0.56,1.589,0.998c0.465,0.432,0.855,0.989,1.159,1.652c0.304,0.659,0.457,1.481,0.457,2.444
						c0,1.069-0.177,1.954-0.53,2.631c-0.357,0.683-0.807,1.244-1.343,1.667c-0.543,0.428-1.151,0.748-1.805,0.956
						c-0.68,0.216-1.335,0.37-1.946,0.456l-0.583,0.082l6.728,11.31H18.874L18.874,23.977z M1.184,11.494h11.482
						c1.185,0,2.168-0.157,2.923-0.465c0.76-0.309,1.366-0.702,1.797-1.167c0.437-0.468,0.739-0.984,0.898-1.535
						c0.152-0.526,0.23-1.013,0.23-1.455c0-0.437-0.078-0.926-0.23-1.452c-0.158-0.55-0.461-1.067-0.898-1.535
						c-0.43-0.462-1.034-0.856-1.797-1.169c-0.755-0.307-1.737-0.463-2.923-0.463H1.184V11.494L1.184,11.494z"/>
					<path id="Fill-14" fill="#FFFFFF" d="M278.975,0.002h-3.471L259.56,12.337V0.171h-2.11v24.612h2.11V12.606l15.709,12.406h3.707
						l-16.099-12.525L278.975,0.002"/>
				</g>
			</g>
		</g>
	</g>
</g>
</svg>
